<?xml version="1.0" standalone="no"?>
<!DOCTYPE svg PUBLIC "-//W3C//DTD SVG 20010904//EN"
 "http://www.w3.org/TR/2001/REC-SVG-20010904/DTD/svg10.dtd">
<svg version="1.0" xmlns="http://www.w3.org/2000/svg"
 width="32.000000pt" height="32.000000pt" viewBox="0 0 32.000000 32.000000"
 preserveAspectRatio="xMidYMid meet">

<g transform="translate(0.000000,32.000000) scale(0.100000,-0.100000)"
fill="#000000" stroke="none">
<path d="M35 211 c-3 -6 -4 -20 -1 -33 3 -13 7 -35 11 -50 7 -34 30 -37 39 -5
l7 22 11 -22 c17 -34 36 -28 43 15 4 20 9 44 11 54 9 32 -16 30 -28 -2 -9 -27
-12 -30 -20 -16 -11 20 -28 21 -28 0 0 -8 -4 -12 -10 -9 -5 3 -10 15 -10 25 0
22 -16 35 -25 21z"/>
<path d="M170 166 c0 -52 2 -57 26 -67 20 -7 32 -6 50 6 13 8 24 20 24 25 0
13 -27 13 -35 0 -3 -5 -12 -10 -20 -10 -9 0 -15 15 -17 47 -5 70 -28 69 -28
-1z"/>
<path d="M245 190 c-3 -5 1 -10 10 -10 9 0 13 5 10 10 -3 6 -8 10 -10 10 -2 0
-7 -4 -10 -10z"/>
</g>
</svg>
