<svg width="49" height="48" fill="none" xmlns="http://www.w3.org/2000/svg"><path d="M24.86 42.57c10.099 0 18.285-8.187 18.285-18.285S34.96 6 24.86 6C14.762 6 6.575 14.187 6.575 24.285S14.762 42.57 24.86 42.57z" fill="url(#a)"/><path opacity=".5" d="M24.86 42.57c10.099 0 18.285-8.187 18.285-18.285S34.96 6 24.86 6C14.762 6 6.575 14.187 6.575 24.285S14.762 42.57 24.86 42.57z" fill="url(#b)"/><path d="M18.89 25.067c.972 0 1.76-1.191 1.76-2.661s-.788-2.662-1.76-2.662-1.76 1.191-1.76 2.662c0 1.47.788 2.662 1.76 2.662z" fill="url(#c)"/><path d="M18.89 20.645c.757 0 1.412.655 1.76 1.633-.025-1.438-.799-2.594-1.76-2.594s-1.735 1.156-1.76 2.594c.348-.978 1.003-1.633 1.76-1.633z" fill="url(#d)"/><path d="M30.83 25.067c.973 0 1.76-1.191 1.76-2.661s-.787-2.662-1.76-2.662c-.972 0-1.76 1.191-1.76 2.662 0 1.47.788 2.662 1.76 2.662z" fill="url(#e)"/><path d="M30.83 20.705c-.756 0-1.411.655-1.76 1.633.026-1.438.8-2.594 1.76-2.594.961 0 1.735 1.156 1.76 2.594-.348-.97-1.003-1.633-1.76-1.633z" fill="url(#f)"/><path d="M28.917 14.598c.042-.731.859-1.148 2.22-1.071 1.156.068 3.657.841 5.281 3.189.298.434-.213.63-.51.348-1.02-.97-3.836-2.304-6.098-2.194-.919.051-.893-.272-.893-.272z" fill="url(#g)"/><path d="M20.803 14.598c-.042-.731-.858-1.148-2.22-1.071-1.156.068-3.656.841-5.28 3.189-.298.434.212.63.51.348 1.02-.97 3.835-2.304 6.097-2.194.919.051.893-.272.893-.272z" fill="url(#h)"/><path d="M24.86 38.93c2.283 0 4.133-2.471 4.133-5.52 0-3.048-1.85-5.519-4.133-5.519s-4.133 2.471-4.133 5.52c0 3.048 1.85 5.52 4.133 5.52z" fill="url(#i)"/><path d="M24.86 29.6c1.786 0 3.334 1.336 4.117 3.292-.196-2.807-1.965-5-4.117-5-2.151 0-3.92 2.193-4.116 5 .782-1.956 2.33-3.292 4.116-3.292z" fill="url(#j)"/><path d="M24.86 32.024c1.097 0 2.135-.17 3.07-.459-.51-1.693-1.692-2.875-3.07-2.875s-2.56 1.191-3.07 2.875c.936.298 1.973.46 3.07.46z" fill="url(#k)"/><defs><radialGradient id="a" cx="0" cy="0" r="1" gradientUnits="userSpaceOnUse" gradientTransform="translate(21.263 16.875) scale(22.0585)"><stop stop-color="#FFDF30"/><stop offset="1" stop-color="#FFB82E"/></radialGradient><radialGradient id="b" cx="0" cy="0" r="1" gradientUnits="userSpaceOnUse" gradientTransform="translate(21.263 16.875) scale(17.3544)"><stop stop-color="#FFE95F"/><stop offset="1" stop-color="#FFBB47" stop-opacity="0"/></radialGradient><radialGradient id="c" cx="0" cy="0" r="1" gradientUnits="userSpaceOnUse" gradientTransform="rotate(73.854 -5.77 23.447) scale(2.58353 1.6715)"><stop offset=".001" stop-color="#7A4400"/><stop offset="1" stop-color="#643800"/></radialGradient><radialGradient id="e" cx="0" cy="0" r="1" gradientUnits="userSpaceOnUse" gradientTransform="rotate(73.854 .2 31.39) scale(2.58353 1.6715)"><stop offset=".001" stop-color="#7A4400"/><stop offset="1" stop-color="#643800"/></radialGradient><radialGradient id="i" cx="0" cy="0" r="1" gradientUnits="userSpaceOnUse" gradientTransform="matrix(1.39477 6.4281 -3.22641 .70007 24.607 33.737)"><stop offset=".001" stop-color="#7A4400"/><stop offset="1" stop-color="#643800"/></radialGradient><radialGradient id="k" cx="0" cy="0" r="1" gradientUnits="userSpaceOnUse" gradientTransform="matrix(6.24067 .02523 -.01778 4.39844 24.86 30.36)"><stop offset=".001" stop-color="#fff"/><stop offset=".431" stop-color="#D3DCDD"/><stop offset=".796" stop-color="#B4C4C6"/><stop offset="1" stop-color="#A8BBBD"/></radialGradient><linearGradient id="d" x1="18.89" y1="19.726" x2="18.89" y2="22.208" gradientUnits="userSpaceOnUse"><stop offset=".001" stop-color="#3C2200"/><stop offset="1" stop-color="#512D00"/></linearGradient><linearGradient id="f" x1="30.83" y1="19.792" x2="30.83" y2="22.273" gradientUnits="userSpaceOnUse"><stop offset=".001" stop-color="#3C2200"/><stop offset="1" stop-color="#512D00"/></linearGradient><linearGradient id="g" x1="32.693" y1="16.034" x2="32.801" y2="14.11" gradientUnits="userSpaceOnUse"><stop offset=".001" stop-color="#3C2200"/><stop offset="1" stop-color="#7A4400"/></linearGradient><linearGradient id="h" x1="17.033" y1="16.034" x2="16.925" y2="14.11" gradientUnits="userSpaceOnUse"><stop offset=".001" stop-color="#3C2200"/><stop offset="1" stop-color="#7A4400"/></linearGradient><linearGradient id="j" x1="24.86" y1="25.294" x2="24.86" y2="34.29" gradientUnits="userSpaceOnUse"><stop offset=".001" stop-color="#3C2200"/><stop offset="1" stop-color="#512D00"/></linearGradient></defs></svg>