<svg width="25" height="24" fill="none" xmlns="http://www.w3.org/2000/svg"><g clip-path="url(#a)"><path fill-rule="evenodd" clip-rule="evenodd" d="M10.079 11.28c.498-.25.874-.53 1.132-.831.46-.543.686-1.263.686-2.156 0-.868-.226-1.61-.68-2.233-.756-1.014-2.035-1.533-3.844-1.56H.205v14.63h6.683c.753 0 1.45-.064 2.096-.196a4.12 4.12 0 0 0 1.675-.735c.42-.31.771-.696 1.05-1.151.442-.687.662-1.466.662-2.333 0-.84-.193-1.555-.578-2.143-.388-.588-.958-1.019-1.714-1.292zM3.162 7.04H6.39c.71 0 1.295.077 1.754.229.53.22.796.669.796 1.353 0 .613-.202 1.042-.603 1.284-.403.242-.927.363-1.569.363H3.162V7.041zm5.105 9.294c-.357.172-.86.258-1.503.258H3.162V12.69h3.651c.636.005 1.131.089 1.485.246.63.285.944.807.944 1.57 0 .9-.324 1.507-.975 1.828zM21.899 5.182h-6.356v1.82h6.356v-1.82zm1.33 4.95c.454.644.745 1.39.877 2.237.078.495.108 1.214.096 2.148H16.21c.049 1.085.427 1.847 1.15 2.282.438.272.963.408 1.582.408.651 0 1.182-.165 1.59-.495.225-.18.422-.427.591-.744h2.929c-.078.64-.434 1.293-1.063 1.956-.982 1.05-2.358 1.577-4.126 1.577-1.462 0-2.749-.443-3.863-1.33-1.12-.887-1.676-2.332-1.676-4.332 0-1.875.504-3.313 1.51-4.314 1.01-.998 2.316-1.5 3.922-1.5.957-.002 1.817.168 2.58.507.767.337 1.397.872 1.894 1.6zm-6.181.844c-.405.412-.66.97-.765 1.674h4.942c-.052-.752-.309-1.32-.763-1.712-.46-.388-1.026-.582-1.703-.582-.733.002-1.306.209-1.712.62z" fill="#fff"/></g><defs><clipPath id="a"><path fill="#fff" transform="translate(.205)" d="M0 0h24v24H0z"/></clipPath></defs></svg>