<svg width="25" height="24" fill="none" xmlns="http://www.w3.org/2000/svg"><g clip-path="url(#a)"><path fill-rule="evenodd" clip-rule="evenodd" d="M12.205 24c-6.617 0-12-5.384-12-12 0-6.615 5.383-11.998 12-11.998s12 5.383 12 11.998c0 6.616-5.383 12-12 12zm9.59-10.443c-.332-.104-3.006-.903-6.05-.416 1.27 3.49 1.788 6.336 1.887 6.925a9.726 9.726 0 0 0 4.163-6.51zM16 20.956c-.146-.852-.71-3.822-2.073-7.365l-.064.021c-5.478 1.908-7.445 5.709-7.62 6.066a9.667 9.667 0 0 0 5.962 2.05A9.681 9.681 0 0 0 16 20.956zM4.989 18.509c.22-.377 2.886-4.79 7.895-6.41.127-.04.254-.079.383-.114a31.65 31.65 0 0 0-.788-1.65c-4.85 1.453-9.557 1.393-9.983 1.383a9.672 9.672 0 0 0 2.493 6.79zm-2.292-8.483c.435.006 4.436.022 8.98-1.183a61.479 61.479 0 0 0-3.602-5.617 9.746 9.746 0 0 0-5.378 6.8zm7.232-7.452c.269.359 2.033 2.76 3.624 5.685 3.455-1.296 4.916-3.26 5.09-3.508a9.666 9.666 0 0 0-6.438-2.447c-.784 0-1.546.093-2.276.27zm9.795 3.3c-.205.277-1.833 2.363-5.424 3.828a31.733 31.733 0 0 1 .853 1.909c3.232-.407 6.444.244 6.765.313a9.668 9.668 0 0 0-2.194-6.05z" fill="#fff"/></g><defs><clipPath id="a"><path fill="#fff" transform="translate(.205)" d="M0 0h24v24H0z"/></clipPath></defs></svg>