<svg width="49" height="48" fill="none" xmlns="http://www.w3.org/2000/svg"><path d="M24.541 42.286c10.099 0 18.286-8.187 18.286-18.286 0-10.099-8.187-18.286-18.286-18.286C14.442 5.714 6.255 13.901 6.255 24c0 10.099 8.187 18.286 18.286 18.286z" fill="url(#a)"/><path opacity=".5" d="M24.541 42.286c10.099 0 18.286-8.187 18.286-18.286 0-10.099-8.187-18.286-18.286-18.286C14.442 5.714 6.255 13.901 6.255 24c0 10.099 8.187 18.286 18.286 18.286z" fill="url(#b)"/><path d="M30.381 15.749c.126-.72.983-1.04 2.32-.812 1.143.195 3.543 1.258 4.891 3.772.252.468-.285.605-.548.285-.903-1.085-3.554-2.73-5.817-2.868-.915-.057-.846-.377-.846-.377z" fill="url(#c)"/><path d="M32.347 19.692s3.188.32 4.08 2.731c.057.149.091.309.08.469 0 .32-.297.662-.869.354-3.497-1.932-5.52-1.017-7.028-.389-.583.252-1.109-.343-.926-.868.046-.149.091-.309.171-.446 1.315-2.194 4.492-1.851 4.492-1.851z" fill="url(#d)"/><path d="M32.278 20.446s2.594.263 4.217 2.251a1.202 1.202 0 0 0-.068-.274c-.892-2.411-4.08-2.731-4.08-2.731s-3.189-.343-4.492 1.851a1.08 1.08 0 0 0-.114.263c1.943-1.634 4.537-1.36 4.537-1.36z" fill="url(#e)"/><path d="M36.884 27.097a.672.672 0 0 0-.423-.023 43.57 43.57 0 0 1-11.92 1.657 43.63 43.63 0 0 1-11.92-1.657.601.601 0 0 0-.423.023c-.423.171-1.074.8-.206 3.211 1.315 3.075 4.732 8.48 12.56 8.48 7.795 0 11.235-5.417 12.549-8.491.857-2.4.206-3.029-.217-3.2z" fill="url(#f)"/><path d="M18.701 15.749c-.126-.72-.983-1.04-2.32-.812-1.143.195-3.543 1.258-4.891 3.772-.252.468.285.605.548.285.903-1.085 3.554-2.73 5.817-2.868.903-.057.846-.377.846-.377z" fill="url(#g)"/><path d="M16.724 19.692s-3.189.32-4.08 2.731a1.098 1.098 0 0 0-.08.469c0 .32.297.662.868.354 3.498-1.932 5.52-1.017 7.029-.389.583.252 1.109-.343.926-.868-.046-.149-.092-.309-.172-.446-1.303-2.194-4.491-1.851-4.491-1.851z" fill="url(#h)"/><path d="M16.792 20.446s-2.594.263-4.217 2.251c.012-.091.035-.183.069-.274.891-2.411 4.08-2.731 4.08-2.731s3.188-.343 4.491 1.851c.046.08.092.171.114.263-1.942-1.634-4.537-1.36-4.537-1.36z" fill="url(#i)"/><path d="M10.61 30.629c.068 2.4-2.092 3.771-3.932 3.451-1.828-.32-3.28-2.148-2.617-4.343 1.52-5.005 8.286-5.908 8.286-5.908s-1.829 3.565-1.737 6.8z" fill="url(#j)"/><path d="M8.187 30.172c-1.452 1.862-4.663.822-3.657-1.566a6.835 6.835 0 0 0-.469 1.143c-.663 2.194.789 4.034 2.617 4.343 1.829.32 3.989-1.052 3.932-3.452-.08-3.234 1.737-6.8 1.737-6.8-3.669 3.657-3.452 5.417-4.16 6.332z" fill="url(#k)"/><path d="M9.98 29.052c-.685 3.874-5.325 3.817-6.045 1.21-.308 1.955 1.052 3.532 2.743 3.818 1.829.32 3.989-1.051 3.932-3.451-.08-3.235 1.737-6.8 1.737-6.8s-1.806 2.045-2.366 5.223z" fill="url(#l)"/><path d="M9.33 31.303c-1.67 2.491-4.652 1.348-5.44-.492 0 .846.32 1.6.822 2.183 2.949 2.263 5.806-.571 5.886-2.217v-.32c-.011-3.188 1.737-6.617 1.737-6.617-2.56 3.68-.96 4.412-3.005 7.463z" fill="url(#m)"/><path opacity=".75" d="M12.347 23.829s-4.835 2.457-5.257 4.788c-.423 2.332-2.686 1.28-2.172.034.914-2.182 4.572-4.25 7.429-4.822z" fill="url(#n)"/><path d="M24.541 37.943c3.234 0 5.669-.994 7.486-2.354-2-.903-4.457-1.497-7.486-1.497s-5.497.594-7.497 1.497c1.817 1.36 4.251 2.354 7.497 2.354z" fill="url(#o)"/><path d="M38.472 30.629c-.068 2.4 2.092 3.771 3.932 3.451 1.828-.32 3.28-2.148 2.617-4.343-1.52-5.005-8.286-5.908-8.286-5.908s1.818 3.565 1.737 6.8z" fill="url(#p)"/><path d="M40.895 30.172c1.452 1.862 4.663.822 3.657-1.566.183.354.343.731.47 1.143.662 2.194-.79 4.034-2.618 4.343-1.829.32-3.989-1.052-3.932-3.452.08-3.234-1.737-6.8-1.737-6.8 3.657 3.657 3.44 5.417 4.16 6.332z" fill="url(#q)"/><path d="M39.09 29.052c.685 3.874 5.325 3.817 6.045 1.21.309 1.955-1.051 3.532-2.743 3.818-1.828.32-3.988-1.051-3.93-3.451.079-3.235-1.738-6.8-1.738-6.8s1.806 2.045 2.366 5.223z" fill="url(#r)"/><path d="M39.741 31.303c1.669 2.491 4.651 1.348 5.44-.492 0 .846-.32 1.6-.823 2.183-2.948 2.263-5.805-.571-5.886-2.217v-.32c.012-3.188-1.737-6.617-1.737-6.617 2.572 3.68.972 4.412 3.006 7.463z" fill="url(#s)"/><path opacity=".75" d="M36.735 23.829s4.835 2.457 5.258 4.788c.422 2.32 2.685 1.28 2.17.034-.913-2.182-4.57-4.25-7.428-4.822z" fill="url(#t)"/><path d="M12.507 27.052c-.023-.012-.057-.012-.08-.012-.263.023-1.52.286-.446 3.269a15.354 15.354 0 0 0 2.777 4.354c-1.28-1.52.297-2.366 3.12-2.023 2.823.343 6.663.343 6.663.343v-4.251a43.108 43.108 0 0 1-12.034-1.68z" fill="url(#u)"/><path d="M36.564 27.052c.023-.012.057-.012.08-.012.263.023 1.52.286.446 3.269a15.354 15.354 0 0 1-2.778 4.354c1.28-1.52-.297-2.366-3.12-2.023-2.823.343-6.663.343-6.663.343v-4.251c4.092.01 8.138-.56 12.035-1.68z" fill="url(#v)"/><path d="M35.398 31.017c.526-.125.926-.571.971-1.12l.195-1.954A44.309 44.309 0 0 1 24.54 29.6c-4.08 0-8.126-.56-12.023-1.657l.194 1.954c.058.537.446.995.972 1.12a46.767 46.767 0 0 0 10.857 1.269c3.668 0 7.314-.423 10.857-1.269z" fill="url(#w)"/><defs><linearGradient id="c" x1="33.965" y1="17.611" x2="34.291" y2="15.711" gradientUnits="userSpaceOnUse"><stop offset=".001" stop-color="#3C2200"/><stop offset="1" stop-color="#7A4400"/></linearGradient><linearGradient id="e" x1="32.461" y1="18.686" x2="32.246" y2="20.902" gradientUnits="userSpaceOnUse"><stop offset=".001" stop-color="#3C2200"/><stop offset="1" stop-color="#512D00"/></linearGradient><linearGradient id="g" x1="15.091" y1="17.596" x2="14.766" y2="15.697" gradientUnits="userSpaceOnUse"><stop offset=".001" stop-color="#3C2200"/><stop offset="1" stop-color="#7A4400"/></linearGradient><linearGradient id="i" x1="16.595" y1="18.684" x2="16.81" y2="20.9" gradientUnits="userSpaceOnUse"><stop offset=".001" stop-color="#3C2200"/><stop offset="1" stop-color="#512D00"/></linearGradient><linearGradient id="j" x1="4.203" y1="23.991" x2="12.032" y2="31.991" gradientUnits="userSpaceOnUse"><stop offset=".072" stop-color="#17BBFE"/><stop offset=".208" stop-color="#D1F2FF"/><stop offset=".668" stop-color="#80DAFE"/><stop offset="1" stop-color="#0099D6"/></linearGradient><linearGradient id="k" x1="13.93" y1="35.916" x2="4.101" y2="22.278" gradientUnits="userSpaceOnUse"><stop stop-color="#D1F2FF"/><stop offset=".668" stop-color="#80DAFE"/><stop offset="1" stop-color="#0099D6"/></linearGradient><linearGradient id="l" x1="6.224" y1="22.393" x2="11.138" y2="35.936" gradientUnits="userSpaceOnUse"><stop offset=".566" stop-color="#80DAFE"/><stop offset="1" stop-color="#0099D6"/></linearGradient><linearGradient id="m" x1="6.797" y1="23.049" x2="10.302" y2="35.011" gradientUnits="userSpaceOnUse"><stop offset=".566" stop-color="#80DAFE"/><stop offset="1" stop-color="#0099D6"/></linearGradient><linearGradient id="n" x1="7.844" y1="31.998" x2="9.444" y2="19.998" gradientUnits="userSpaceOnUse"><stop stop-color="#fff"/><stop offset="1" stop-color="#80DAFE"/></linearGradient><linearGradient id="p" x1="44.874" y1="23.991" x2="37.045" y2="31.991" gradientUnits="userSpaceOnUse"><stop offset=".072" stop-color="#17BBFE"/><stop offset=".208" stop-color="#D1F2FF"/><stop offset=".668" stop-color="#80DAFE"/><stop offset="1" stop-color="#0099D6"/></linearGradient><linearGradient id="q" x1="35.147" y1="35.916" x2="44.976" y2="22.278" gradientUnits="userSpaceOnUse"><stop stop-color="#D1F2FF"/><stop offset=".668" stop-color="#80DAFE"/><stop offset="1" stop-color="#0099D6"/></linearGradient><linearGradient id="r" x1="42.852" y1="22.393" x2="37.938" y2="35.936" gradientUnits="userSpaceOnUse"><stop offset=".566" stop-color="#80DAFE"/><stop offset="1" stop-color="#0099D6"/></linearGradient><linearGradient id="s" x1="42.28" y1="23.049" x2="38.775" y2="35.011" gradientUnits="userSpaceOnUse"><stop offset=".566" stop-color="#80DAFE"/><stop offset="1" stop-color="#0099D6"/></linearGradient><linearGradient id="t" x1="41.233" y1="31.998" x2="39.633" y2="19.998" gradientUnits="userSpaceOnUse"><stop stop-color="#fff"/><stop offset="1" stop-color="#80DAFE"/></linearGradient><linearGradient id="u" x1="11.558" y1="30.857" x2="24.538" y2="30.857" gradientUnits="userSpaceOnUse"><stop offset=".001" stop-color="#3C2200"/><stop offset="1" stop-color="#512D00"/></linearGradient><linearGradient id="v" x1="37.515" y1="30.857" x2="24.535" y2="30.857" gradientUnits="userSpaceOnUse"><stop offset=".001" stop-color="#3C2200"/><stop offset="1" stop-color="#512D00"/></linearGradient><radialGradient id="a" cx="0" cy="0" r="1" gradientUnits="userSpaceOnUse" gradientTransform="translate(20.94 16.592) scale(22.0594)"><stop stop-color="#FFE030"/><stop offset="1" stop-color="#FFB92E"/></radialGradient><radialGradient id="b" cx="0" cy="0" r="1" gradientUnits="userSpaceOnUse" gradientTransform="translate(20.94 16.592) scale(17.3551)"><stop stop-color="#FFEA5F"/><stop offset="1" stop-color="#FFBC47" stop-opacity="0"/></radialGradient><radialGradient id="d" cx="0" cy="0" r="1" gradientUnits="userSpaceOnUse" gradientTransform="matrix(3.42842 .35236 -.17 1.6541 32.169 21.495)"><stop offset=".001" stop-color="#7A4400"/><stop offset="1" stop-color="#643800"/></radialGradient><radialGradient id="f" cx="0" cy="0" r="1" gradientUnits="userSpaceOnUse" gradientTransform="translate(24.538 32.927) scale(10.0733)"><stop offset=".001" stop-color="#7A4400"/><stop offset="1" stop-color="#643800"/></radialGradient><radialGradient id="h" cx="0" cy="0" r="1" gradientUnits="userSpaceOnUse" gradientTransform="matrix(-3.42842 .35236 -.17 -1.6541 16.87 21.496)"><stop offset=".001" stop-color="#7A4400"/><stop offset="1" stop-color="#643800"/></radialGradient><radialGradient id="o" cx="0" cy="0" r="1" gradientUnits="userSpaceOnUse" gradientTransform="matrix(8.34852 0 0 2.52377 24.69 36.47)"><stop offset=".248" stop-color="red"/><stop offset="1" stop-color="#C20000"/></radialGradient><radialGradient id="w" cx="0" cy="0" r="1" gradientUnits="userSpaceOnUse" gradientTransform="translate(24.538 30.117) scale(22.0909)"><stop offset=".001" stop-color="#fff"/><stop offset="1" stop-color="#A9BCBE"/></radialGradient></defs></svg>