<svg width="49" height="48" fill="none" xmlns="http://www.w3.org/2000/svg"><circle cx="24.681" cy="23.894" r="23.894" fill="#418CFE"/><path d="M30.148 15.179c-1.929 0-3.632.97-4.648 2.449a5.63 5.63 0 0 0-4.648-2.45 5.64 5.64 0 0 0-5.638 5.639c0 6.872 10.286 13.05 10.286 13.05s10.286-6.178 10.286-13.05a5.64 5.64 0 0 0-5.638-5.638z" fill="url(#a)"/><path opacity=".5" d="M32.481 15.68c3.086 4.918.245 11.372-3.169 13.204-3.767 2.026-6.345 1.074-11.68-1.954 3.04 4.03 7.868 6.93 7.868 6.93s10.286-6.178 10.286-13.05a5.642 5.642 0 0 0-3.305-5.13z" fill="url(#b)"/><path opacity=".5" d="M30.148 15.179c-1.929 0-3.632.97-4.648 2.449a5.63 5.63 0 0 0-4.648-2.45 5.64 5.64 0 0 0-5.638 5.639c0 6.872 10.286 13.05 10.286 13.05s10.286-6.178 10.286-13.05a5.64 5.64 0 0 0-5.638-5.638z" fill="url(#c)"/><path opacity=".5" d="M30.148 15.179c-1.929 0-3.632.97-4.648 2.449a5.63 5.63 0 0 0-4.648-2.45 5.64 5.64 0 0 0-5.638 5.639c0 6.872 10.286 13.05 10.286 13.05s10.286-6.178 10.286-13.05a5.64 5.64 0 0 0-5.638-5.638z" fill="url(#d)"/><path opacity=".24" d="M24.092 17.467c.566 1.331-.688 3.138-2.803 4.031-2.115.894-4.281.547-4.847-.778-.566-1.324.688-3.137 2.803-4.03 2.115-.894 4.281-.553 4.847.777z" fill="url(#e)"/><path opacity=".24" d="M30.983 16.388c.804.887.309 2.642-1.099 3.915-1.408 1.272-3.201 1.587-4.005.7-.803-.887-.308-2.642 1.1-3.915 1.407-1.273 3.2-1.588 4.004-.7z" fill="url(#f)"/><path opacity=".32" d="M30.25 16.677c2.83.964 5.53 5.142.965 10.35-2.732 3.117-5.715 4.692-9.508 4.075 2.05 1.71 3.8 2.765 3.8 2.765s10.285-6.178 10.285-13.05a5.65 5.65 0 0 0-5.644-5.638 5.63 5.63 0 0 0-4.648 2.449s2.68-1.659 4.75-.951z" fill="url(#g)"/><defs><radialGradient id="a" cx="0" cy="0" r="1" gradientUnits="userSpaceOnUse" gradientTransform="matrix(14.02082 -7.9029 6.26902 11.12209 22.558 20.391)"><stop offset=".248" stop-color="red"/><stop offset=".864" stop-color="#C20000"/></radialGradient><radialGradient id="b" cx="0" cy="0" r="1" gradientUnits="userSpaceOnUse" gradientTransform="rotate(-29.408 48.449 -34.037) scale(13.857 10.9921)"><stop offset=".248" stop-color="red"/><stop offset="1" stop-color="#C20000"/></radialGradient><radialGradient id="c" cx="0" cy="0" r="1" gradientUnits="userSpaceOnUse" gradientTransform="matrix(14.02082 -7.9029 6.26902 11.12209 22.558 20.391)"><stop stop-color="#fff" stop-opacity=".25"/><stop offset="1" stop-color="#fff" stop-opacity="0"/></radialGradient><radialGradient id="d" cx="0" cy="0" r="1" gradientUnits="userSpaceOnUse" gradientTransform="rotate(-26.296 69.514 -47.742) scale(11.7485 5.80543)"><stop stop-color="#BD2719" stop-opacity=".25"/><stop offset="1" stop-color="#BD2719" stop-opacity="0"/></radialGradient><radialGradient id="e" cx="0" cy="0" r="1" gradientUnits="userSpaceOnUse" gradientTransform="matrix(3.88085 -1.54366 .9589 2.41072 20.266 19.094)"><stop stop-color="#fff"/><stop offset="1" stop-color="#fff" stop-opacity="0"/></radialGradient><radialGradient id="f" cx="0" cy="0" r="1" gradientUnits="userSpaceOnUse" gradientTransform="rotate(-40.763 39.382 -28.903) scale(3.45798 2.14819)"><stop stop-color="#fff"/><stop offset="1" stop-color="#fff" stop-opacity="0"/></radialGradient><linearGradient id="g" x1="27.623" y1="41.206" x2="29.616" y2="14.335" gradientUnits="userSpaceOnUse"><stop stop-color="#860805"/><stop offset="1" stop-color="#BD2719" stop-opacity="0"/></linearGradient></defs></svg>