<svg width="19" height="19" fill="none" xmlns="http://www.w3.org/2000/svg"><g clip-path="url(#a)"><path fill-rule="evenodd" clip-rule="evenodd" d="M4.376 2.188a2.188 2.188 0 1 1-4.376 0 2.188 2.188 0 0 1 4.376 0zm2.067 15.985V6.033h3.618v1.66h.05c.504-.952 1.734-1.96 3.569-1.96 3.822 0 4.526 2.514 4.526 5.784v6.657h-3.771V12.27c0-1.407-.024-3.218-1.961-3.218-1.964 0-2.262 1.534-2.262 3.118v6.003h-3.77zM4.076 6.033H.3v12.14h3.775V6.033z" fill="#fff"/></g><defs><clipPath id="a"><path fill="#fff" d="M0 0h18.205v18.174H0z"/></clipPath></defs></svg>