<svg width="49" height="48" fill="none" xmlns="http://www.w3.org/2000/svg"><path d="M24.575 42.286c10.1 0 18.286-8.187 18.286-18.286 0-10.099-8.187-18.286-18.286-18.286C14.476 5.714 6.29 13.901 6.29 24c0 10.099 8.187 18.286 18.286 18.286z" fill="url(#a)"/><path d="M24.22 31.429s3.795-.012 5.098 3.005c.08.195.137.4.149.606.034.423-.263.857-.983.572-1.155-.458-3.143-.686-4.263-.686s-3.097.228-4.263.686c-.72.285-1.017-.149-.983-.572.012-.206.069-.411.149-.606 1.314-3.017 5.097-3.005 5.097-3.005z" fill="url(#b)"/><path d="M18.61 28.64c.972 0 1.76-1.192 1.76-2.663 0-1.47-.788-2.663-1.76-2.663-.973 0-1.76 1.192-1.76 2.663 0 1.47.787 2.663 1.76 2.663z" fill="url(#c)"/><path d="M17.912 25.017c1.029 0 1.886 1.052 2.137 2.48.206-.434.32-.96.32-1.531 0-1.475-.788-2.663-1.76-2.663-.845 0-1.554.891-1.725 2.091.308-.24.651-.377 1.028-.377z" fill="url(#d)"/><path d="M16.724 19.486c-1.578 0-2.926 1.817-1.166 2.091 1.76.275 4.96 1.795 6.32 2.846.103.126.503.08.468-.229 0-1.188-3.702-4.708-5.622-4.708z" fill="url(#e)"/><path d="M24.22 32.423s3.087-.012 5.2 2.366a1.282 1.282 0 0 0-.113-.355c-1.303-3.017-5.098-3.005-5.098-3.005s-3.794-.012-5.097 3.005c-.045.115-.08.229-.114.355 2.137-2.378 5.223-2.366 5.223-2.366z" fill="url(#f)"/><path d="M30.54 28.64c.973 0 1.76-1.192 1.76-2.663 0-1.47-.787-2.663-1.76-2.663-.971 0-1.76 1.192-1.76 2.663 0 1.47.789 2.663 1.76 2.663z" fill="url(#g)"/><path d="M31.238 25.017c-1.029 0-1.886 1.052-2.137 2.48a3.593 3.593 0 0 1-.32-1.531c0-1.475.789-2.663 1.76-2.663.846 0 1.554.891 1.726 2.091-.309-.24-.652-.377-1.029-.377z" fill="url(#h)"/><path d="M32.427 19.486c1.577 0 2.925 1.817 1.165 2.091-1.76.275-4.96 1.795-6.32 2.846-.103.126-.503.08-.468-.229 0-1.188 3.703-4.708 5.623-4.708z" fill="url(#i)"/><defs><linearGradient id="d" x1="18.626" y1="24.122" x2="18.626" y2="26.505" gradientUnits="userSpaceOnUse"><stop offset=".001" stop-color="#3C2200"/><stop offset="1" stop-color="#512D00"/></linearGradient><linearGradient id="e" x1="18.538" y1="25.82" x2="18.538" y2="20.295" gradientUnits="userSpaceOnUse"><stop offset=".001" stop-color="#3C2200"/><stop offset="1" stop-color="#643800"/></linearGradient><linearGradient id="f" x1="24.223" y1="30.13" x2="24.223" y2="33.008" gradientUnits="userSpaceOnUse"><stop offset=".001" stop-color="#3C2200"/><stop offset="1" stop-color="#512D00"/></linearGradient><linearGradient id="h" x1="30.524" y1="24.122" x2="30.524" y2="26.505" gradientUnits="userSpaceOnUse"><stop offset=".001" stop-color="#3C2200"/><stop offset="1" stop-color="#512D00"/></linearGradient><linearGradient id="i" x1="30.613" y1="25.82" x2="30.613" y2="20.295" gradientUnits="userSpaceOnUse"><stop offset=".001" stop-color="#3C2200"/><stop offset="1" stop-color="#643800"/></linearGradient><radialGradient id="a" cx="0" cy="0" r="1" gradientUnits="userSpaceOnUse" gradientTransform="rotate(-29.698 41.76 -30.214) scale(18.4532 15.0751)"><stop stop-color="#FF9214"/><stop offset="1" stop-color="#FF4E0D"/></radialGradient><radialGradient id="b" cx="0" cy="0" r="1" gradientUnits="userSpaceOnUse" gradientTransform="matrix(4.00379 0 0 2.13282 24.223 33.568)"><stop offset=".001" stop-color="#7A4400"/><stop offset="1" stop-color="#643800"/></radialGradient><radialGradient id="c" cx="0" cy="0" r="1" gradientUnits="userSpaceOnUse" gradientTransform="matrix(.71848 2.48173 -1.60565 .46485 18.07 26.038)"><stop offset=".001" stop-color="#7A4400"/><stop offset="1" stop-color="#643800"/></radialGradient><radialGradient id="g" cx="0" cy="0" r="1" gradientUnits="userSpaceOnUse" gradientTransform="rotate(106.146 5.797 24.695) scale(2.58364 1.67157)"><stop offset=".001" stop-color="#7A4400"/><stop offset="1" stop-color="#643800"/></radialGradient></defs></svg>