<svg width="49" height="48" fill="none" xmlns="http://www.w3.org/2000/svg"><path d="M24.86 42.57c10.099 0 18.285-8.187 18.285-18.285S34.96 6 24.86 6C14.762 6 6.575 14.187 6.575 24.285S14.762 42.57 24.86 42.57z" fill="url(#a)"/><path opacity=".5" d="M24.86 42.57c10.099 0 18.285-8.187 18.285-18.285S34.96 6 24.86 6C14.762 6 6.575 14.187 6.575 24.285S14.762 42.57 24.86 42.57z" fill="url(#b)"/><path d="M24.86 42.57c10.099 0 18.285-8.187 18.285-18.285S34.96 6 24.86 6C14.762 6 6.575 14.187 6.575 24.285S14.762 42.57 24.86 42.57z" fill="url(#c)"/><path d="M13.265 17.197c.043.882.872 1.387 2.227 1.312 1.161-.064 3.657-.968 5.26-3.764.29-.517-.216-.764-.517-.42-1.01 1.15-3.818 2.721-6.088 2.55-.903-.065-.882.322-.882.322z" fill="url(#d)"/><path d="M18.89 25.06c.975 0 1.765-1.19 1.765-2.657s-.79-2.657-1.764-2.657-1.764 1.19-1.764 2.657.79 2.657 1.764 2.657z" fill="url(#e)"/><path d="M18.89 20.639c.754 0 1.42.656 1.765 1.634-.022-1.44-.807-2.592-1.764-2.592-.958 0-1.743 1.162-1.764 2.592.344-.968 1.01-1.634 1.764-1.634z" fill="url(#f)"/><path d="M30.83 25.06c.974 0 1.764-1.19 1.764-2.657s-.79-2.657-1.764-2.657-1.764 1.19-1.764 2.657.79 2.657 1.764 2.657z" fill="url(#g)"/><path d="M36.455 17.261c-.043.882-.871 1.388-2.226 1.313-1.162-.065-3.657-.969-5.26-3.765-.29-.516.215-.764.516-.42 1.011 1.151 3.819 2.722 6.088 2.55.904-.065.882.322.882.322z" fill="url(#h)"/><path d="M30.83 20.703c-.753 0-1.42.657-1.764 1.635.021-1.441.806-2.592 1.764-2.592.957 0 1.742 1.162 1.764 2.592-.345-.968-1.011-1.635-1.764-1.635z" fill="url(#i)"/><path d="M24.86 31.05c5.367 0 7.078 5.303 5.443 4.475-2.195-1.119-3.582-1.215-5.443-1.215-1.86 0-3.248.107-5.442 1.215-1.635.828.075-4.474 5.442-4.474z" fill="#643800"/><path d="M24.86 31.986c3.163 0 5.163 1.786 6.034 3.27.054-1.075-1.914-4.206-6.034-4.206s-6.088 3.13-6.034 4.206c.871-1.473 2.872-3.27 6.034-3.27z" fill="url(#j)"/><path d="M17.675 33.696c1.087 2.721-.806 5.195-3.033 5.604-2.226.409-4.668-1.076-4.83-3.861-.376-6.368 6.992-10.25 6.992-10.25s-.58 4.84.871 8.507z" fill="url(#k)"/><path d="M14.717 34.18c-.882 2.743-4.98 2.915-4.84-.258a7.75 7.75 0 0 0-.054 1.506c.162 2.786 2.603 4.281 4.83 3.861 2.226-.408 4.12-2.882 3.033-5.603-1.463-3.668-.882-8.519-.882-8.519-2.646 5.744-1.657 7.669-2.087 9.013z" fill="url(#l)"/><path d="M16.299 32.148c.85 4.721-4.475 6.604-6.4 3.925.473 2.367 2.7 3.593 4.743 3.216 2.227-.408 4.12-2.882 3.033-5.603-1.463-3.668-.882-8.519-.882-8.519s-1.194 3.108-.494 6.98z" fill="url(#m)"/><path d="M16.514 34.987c-.85 3.55-4.755 3.496-6.432 1.732a3.987 3.987 0 0 0 1.86 2.14c4.335 1.345 6.4-3.108 5.798-5.023-.022-.053-.032-.107-.054-.15a1.26 1.26 0 0 1-.075-.215c-1.355-3.636-.796-8.304-.796-8.304-1.399 5.313.742 5.475-.301 9.82z" fill="url(#n)"/><path d="M17.675 33.696c1.087 2.722-.806 5.196-3.033 5.604-2.226.409-4.668-1.075-4.83-3.861-.376-6.368 6.992-10.25 6.992-10.25s-.58 4.84.871 8.507z" fill="url(#o)"/><defs><linearGradient id="d" x1="17.042" y1="15.523" x2="17.169" y2="17.831" gradientUnits="userSpaceOnUse"><stop offset=".001" stop-color="#3C2200"/><stop offset="1" stop-color="#7A4400"/></linearGradient><linearGradient id="f" x1="18.89" y1="19.726" x2="18.89" y2="22.208" gradientUnits="userSpaceOnUse"><stop offset=".001" stop-color="#3C2200"/><stop offset="1" stop-color="#512D00"/></linearGradient><linearGradient id="h" x1="32.685" y1="15.585" x2="32.558" y2="17.893" gradientUnits="userSpaceOnUse"><stop offset=".001" stop-color="#3C2200"/><stop offset="1" stop-color="#7A4400"/></linearGradient><linearGradient id="i" x1="30.83" y1="19.792" x2="30.83" y2="22.273" gradientUnits="userSpaceOnUse"><stop offset=".001" stop-color="#3C2200"/><stop offset="1" stop-color="#512D00"/></linearGradient><linearGradient id="j" x1="24.86" y1="29.668" x2="24.86" y2="33.899" gradientUnits="userSpaceOnUse"><stop offset=".001" stop-color="#3C2200"/><stop offset="1" stop-color="#512D00"/></linearGradient><linearGradient id="k" x1="7.568" y1="28.804" x2="19.897" y2="34.653" gradientUnits="userSpaceOnUse"><stop offset=".072" stop-color="#17BAFD"/><stop offset=".208" stop-color="#D0F1FF"/><stop offset=".668" stop-color="#80D9FD"/><stop offset="1" stop-color="#0098D5"/></linearGradient><linearGradient id="l" x1="23.723" y1="38.343" x2="6.728" y2="26.888" gradientUnits="userSpaceOnUse"><stop stop-color="#D0F1FF"/><stop offset=".668" stop-color="#80D9FD"/><stop offset="1" stop-color="#0098D5"/></linearGradient><linearGradient id="m" x1="9.206" y1="26.124" x2="20.538" y2="39.543" gradientUnits="userSpaceOnUse"><stop offset=".566" stop-color="#80D9FD"/><stop offset="1" stop-color="#0098D5"/></linearGradient><linearGradient id="n" x1="10.138" y1="26.633" x2="19.191" y2="38.839" gradientUnits="userSpaceOnUse"><stop offset=".566" stop-color="#80D9FD"/><stop offset="1" stop-color="#0098D5"/></linearGradient><radialGradient id="a" cx="0" cy="0" r="1" gradientUnits="userSpaceOnUse" gradientTransform="translate(21.263 16.875) scale(22.0585)"><stop stop-color="#FFDF30"/><stop offset="1" stop-color="#FFB82E"/></radialGradient><radialGradient id="b" cx="0" cy="0" r="1" gradientUnits="userSpaceOnUse" gradientTransform="translate(21.263 16.875) scale(17.3544)"><stop stop-color="#FFE95F"/><stop offset="1" stop-color="#FFBB47" stop-opacity="0"/></radialGradient><radialGradient id="c" cx="0" cy="0" r="1" gradientUnits="userSpaceOnUse" gradientTransform="matrix(4.91433 15.77044 -8.48227 2.64321 17.255 33.238)"><stop stop-color="#EA672A" stop-opacity=".5"/><stop offset=".346" stop-color="#DB641B" stop-opacity=".285"/><stop offset=".804" stop-color="#C15E00" stop-opacity="0"/></radialGradient><radialGradient id="e" cx="0" cy="0" r="1" gradientUnits="userSpaceOnUse" gradientTransform="rotate(73.854 -5.77 23.447) scale(2.58353 1.6715)"><stop offset=".001" stop-color="#7A4400"/><stop offset="1" stop-color="#643800"/></radialGradient><radialGradient id="g" cx="0" cy="0" r="1" gradientUnits="userSpaceOnUse" gradientTransform="rotate(73.854 .2 31.39) scale(2.58353 1.6715)"><stop offset=".001" stop-color="#7A4400"/><stop offset="1" stop-color="#643800"/></radialGradient><radialGradient id="o" cx="0" cy="0" r="1" gradientUnits="userSpaceOnUse" gradientTransform="matrix(1.32884 -5.5862 3.28908 .7824 13.053 32.34)"><stop stop-color="#fff" stop-opacity=".45"/><stop offset="1" stop-color="#fff" stop-opacity="0"/></radialGradient></defs></svg>