<svg width="49" height="48" fill="none" xmlns="http://www.w3.org/2000/svg"><path d="M24.918 42.48c10.099 0 18.286-8.187 18.286-18.286 0-10.098-8.187-18.285-18.286-18.285-10.099 0-18.286 8.186-18.286 18.285 0 10.1 8.187 18.286 18.286 18.286z" fill="url(#a)"/><path opacity=".5" d="M24.918 42.48c10.099 0 18.286-8.187 18.286-18.286 0-10.098-8.187-18.285-18.286-18.285-10.099 0-18.286 8.186-18.286 18.285 0 10.1 8.187 18.286 18.286 18.286z" fill="url(#b)"/><path opacity=".5" d="M24.918 42.48c10.099 0 18.286-8.187 18.286-18.286 0-10.098-8.187-18.285-18.286-18.285-10.099 0-18.286 8.186-18.286 18.285 0 10.1 8.187 18.286 18.286 18.286z" fill="url(#c)"/><path opacity=".5" d="M24.918 42.48c10.099 0 18.286-8.187 18.286-18.286 0-10.098-8.187-18.285-18.286-18.285-10.099 0-18.286 8.186-18.286 18.285 0 10.1 8.187 18.286 18.286 18.286z" fill="url(#d)"/><path d="M24.918 36.355c-5.269 0-6.949-5.646-5.349-4.766 2.149 1.188 3.52 1.303 5.349 1.303 1.829 0 3.189-.115 5.349-1.303 1.6-.88-.08 4.766-5.349 4.766z" fill="#643800"/><path d="M30.267 31.589c-2.149 1.188-3.52 1.303-5.349 1.303-1.828 0-3.188-.115-5.348-1.303-.56-.309-.72.171-.47.937 0-.012.08-.835.835-.263 0 0 2.777 1.669 4.972 1.669 2.194 0 4.971-1.67 4.971-1.67.754-.56.834.252.834.264.275-.755.115-1.246-.445-.937z" fill="url(#e)"/><path d="M20.93 17.532c.102-.732-.63-1.292-1.978-1.463-1.154-.149-3.748.137-5.794 2.137-.377.366.091.663.434.434 1.189-.765 4.206-1.543 6.4-1.006.892.218.937-.102.937-.102z" fill="url(#f)"/><path d="M28.907 17.532c-.103-.732.628-1.292 1.977-1.463 1.154-.149 3.748.137 5.794 2.137.377.366-.091.663-.434.434-1.189-.765-4.206-1.543-6.4-1.006-.892.218-.937-.102-.937-.102z" fill="url(#g)"/><path d="M32.495 21.977s3.017.526 3.692 2.88c.045.149.057.309.045.457-.023.309-.331.606-.845.275-3.2-2.069-5.178-1.349-6.652-.846-.571.194-1.028-.412-.823-.891.058-.138.103-.286.195-.412 1.371-2 4.388-1.463 4.388-1.463z" fill="url(#h)"/><path d="M32.37 22.697s2.457.423 3.851 2.434a2.294 2.294 0 0 0-.046-.274c-.674-2.354-3.691-2.88-3.691-2.88s-3.006-.537-4.4 1.452c-.057.08-.092.16-.126.24 1.966-1.406 4.412-.972 4.412-.972z" fill="url(#i)"/><path d="M17.341 21.977s-3.017.526-3.692 2.88a1.247 1.247 0 0 0-.045.457c.023.309.331.606.846.275 3.2-2.069 5.177-1.349 6.65-.846.572.194 1.03-.412.824-.891-.057-.138-.103-.286-.194-.412-1.372-2-4.389-1.463-4.389-1.463z" fill="url(#j)"/><path d="M17.467 22.697s-2.457.423-3.852 2.434c.012-.09.023-.182.046-.274.674-2.354 3.691-2.88 3.691-2.88s3.006-.537 4.4 1.452c.058.08.092.16.126.24-1.966-1.406-4.411-.972-4.411-.972z" fill="url(#k)"/><path opacity=".5" d="M24.918 42.48c10.099 0 18.286-8.187 18.286-18.286 0-10.098-8.187-18.285-18.286-18.285-10.099 0-18.286 8.186-18.286 18.285 0 10.1 8.187 18.286 18.286 18.286z" fill="url(#l)"/><path opacity=".5" d="M24.918 42.48c10.099 0 18.286-8.187 18.286-18.286 0-10.098-8.187-18.285-18.286-18.285-10.099 0-18.286 8.186-18.286 18.285 0 10.1 8.187 18.286 18.286 18.286z" fill="url(#m)"/><path opacity=".5" d="M24.918 42.48c10.099 0 18.286-8.187 18.286-18.286 0-10.098-8.187-18.285-18.286-18.285-10.099 0-18.286 8.186-18.286 18.285 0 10.1 8.187 18.286 18.286 18.286z" fill="url(#n)"/><path d="M37.204 4.686c-1.109 0-2.092.56-2.675 1.406a3.249 3.249 0 0 0-2.674-1.406 3.243 3.243 0 0 0-3.245 3.246c0 3.954 5.92 7.508 5.92 7.508s5.92-3.554 5.92-7.508a3.243 3.243 0 0 0-3.246-3.246z" fill="url(#o)"/><path opacity=".5" d="M38.54 4.971c1.772 2.835.138 6.549-1.828 7.6-2.171 1.166-3.645.618-6.72-1.131 1.749 2.32 4.526 3.989 4.526 3.989s5.92-3.555 5.92-7.509a3.213 3.213 0 0 0-1.897-2.949z" fill="url(#p)"/><path opacity=".5" d="M37.204 4.686c-1.109 0-2.092.56-2.675 1.406a3.249 3.249 0 0 0-2.674-1.406 3.243 3.243 0 0 0-3.245 3.246c0 3.954 5.92 7.508 5.92 7.508s5.92-3.554 5.92-7.508a3.243 3.243 0 0 0-3.246-3.246z" fill="url(#q)"/><path opacity=".5" d="M37.204 4.686c-1.109 0-2.092.56-2.675 1.406a3.249 3.249 0 0 0-2.674-1.406 3.243 3.243 0 0 0-3.245 3.246c0 3.954 5.92 7.508 5.92 7.508s5.92-3.554 5.92-7.508a3.243 3.243 0 0 0-3.246-3.246z" fill="url(#r)"/><path opacity=".24" d="M33.718 6c.32.766-.4 1.806-1.611 2.32-1.212.514-2.469.32-2.789-.446-.32-.765.4-1.806 1.612-2.32 1.211-.514 2.468-.32 2.788.446z" fill="url(#s)"/><path opacity=".24" d="M37.684 5.383c.457.514.183 1.52-.64 2.252-.812.73-1.84.914-2.309.4-.457-.515-.183-1.52.64-2.252.812-.731 1.852-.914 2.309-.4z" fill="url(#t)"/><path opacity=".32" d="M37.26 5.543c1.624.56 3.178 2.96.56 5.954-1.576 1.794-3.29 2.697-5.473 2.343a19.542 19.542 0 0 0 2.182 1.589s5.92-3.555 5.92-7.509a3.244 3.244 0 0 0-3.245-3.246c-1.109 0-2.092.56-2.675 1.406 0 .011 1.543-.937 2.732-.537z" fill="url(#u)"/><path d="M14.084 27.817c-1.109 0-2.092.56-2.675 1.406a3.22 3.22 0 0 0-2.674-1.406 3.241 3.241 0 0 0-3.246 3.234c0 3.955 5.92 7.509 5.92 7.509s5.92-3.554 5.92-7.509a3.241 3.241 0 0 0-3.245-3.234z" fill="url(#v)"/><path opacity=".5" d="M15.42 28.103c1.772 2.834.138 6.548-1.828 7.6-2.171 1.165-3.645.617-6.72-1.132 1.749 2.32 4.526 3.989 4.526 3.989s5.92-3.554 5.92-7.509a3.189 3.189 0 0 0-1.897-2.948z" fill="url(#w)"/><path opacity=".5" d="M14.084 27.817c-1.109 0-2.092.56-2.675 1.406a3.22 3.22 0 0 0-2.674-1.406 3.241 3.241 0 0 0-3.246 3.234c0 3.955 5.92 7.509 5.92 7.509s5.92-3.554 5.92-7.509a3.241 3.241 0 0 0-3.245-3.234z" fill="url(#x)"/><path opacity=".5" d="M14.084 27.817c-1.109 0-2.092.56-2.675 1.406a3.22 3.22 0 0 0-2.674-1.406 3.241 3.241 0 0 0-3.246 3.234c0 3.955 5.92 7.509 5.92 7.509s5.92-3.554 5.92-7.509a3.241 3.241 0 0 0-3.245-3.234z" fill="url(#y)"/><path opacity=".24" d="M10.598 29.131c.32.766-.4 1.806-1.611 2.32-1.212.515-2.469.32-2.789-.445-.32-.766.4-1.806 1.612-2.32 1.211-.526 2.468-.32 2.788.445z" fill="url(#z)"/><path opacity=".24" d="M14.564 28.514c.457.515.183 1.52-.64 2.252-.811.731-1.84.914-2.309.4-.468-.515-.183-1.52.64-2.252.812-.731 1.852-.914 2.309-.4z" fill="url(#A)"/><path opacity=".32" d="M14.14 28.674c1.624.56 3.178 2.96.56 5.955-1.576 1.794-3.29 2.697-5.473 2.343a19.543 19.543 0 0 0 2.182 1.588s5.92-3.554 5.92-7.508a3.244 3.244 0 0 0-3.245-3.246 3.25 3.25 0 0 0-2.675 1.406c0 .011 1.543-.949 2.732-.538z" fill="url(#B)"/><path d="M40.415 32.503c-1.108 0-2.091.56-2.674 1.406a3.22 3.22 0 0 0-2.674-1.406 3.244 3.244 0 0 0-3.246 3.246c0 3.954 5.92 7.508 5.92 7.508s5.92-3.554 5.92-7.508a3.244 3.244 0 0 0-3.246-3.246z" fill="url(#C)"/><path opacity=".5" d="M41.764 32.789c1.771 2.834.137 6.548-1.829 7.6-2.171 1.165-3.646.617-6.72-1.132 1.749 2.32 4.526 3.989 4.526 3.989s5.92-3.555 5.92-7.509a3.226 3.226 0 0 0-1.897-2.948z" fill="url(#D)"/><path opacity=".5" d="M40.415 32.503c-1.108 0-2.091.56-2.674 1.406a3.22 3.22 0 0 0-2.674-1.406 3.244 3.244 0 0 0-3.246 3.246c0 3.954 5.92 7.508 5.92 7.508s5.92-3.554 5.92-7.508a3.244 3.244 0 0 0-3.246-3.246z" fill="url(#E)"/><path opacity=".5" d="M40.415 32.503c-1.108 0-2.091.56-2.674 1.406a3.22 3.22 0 0 0-2.674-1.406 3.244 3.244 0 0 0-3.246 3.246c0 3.954 5.92 7.508 5.92 7.508s5.92-3.554 5.92-7.508a3.244 3.244 0 0 0-3.246-3.246z" fill="url(#F)"/><path opacity=".24" d="M36.93 33.817c.32.766-.4 1.806-1.612 2.32-1.211.514-2.468.32-2.788-.446-.32-.765.4-1.805 1.611-2.32 1.211-.525 2.469-.32 2.789.446z" fill="url(#G)"/><path opacity=".24" d="M40.895 33.2c.457.514.183 1.52-.64 2.252-.811.731-1.84.914-2.308.4-.457-.515-.183-1.52.64-2.252.811-.731 1.851-.914 2.308-.4z" fill="url(#H)"/><path opacity=".32" d="M40.472 33.36c1.623.56 3.177 2.96.56 5.954-1.577 1.795-3.291 2.697-5.474 2.343a19.53 19.53 0 0 0 2.183 1.589s5.92-3.555 5.92-7.509a3.243 3.243 0 0 0-3.246-3.245c-1.108 0-2.091.56-2.674 1.405 0 .012 1.543-.948 2.731-.537z" fill="url(#I)"/><defs><radialGradient id="a" cx="0" cy="0" r="1" gradientUnits="userSpaceOnUse" gradientTransform="translate(21.32 16.788) scale(22.0594)"><stop stop-color="#FFE030"/><stop offset="1" stop-color="#FFB92E"/></radialGradient><radialGradient id="b" cx="0" cy="0" r="1" gradientUnits="userSpaceOnUse" gradientTransform="translate(21.32 16.788) scale(17.3551)"><stop stop-color="#FFEA5F"/><stop offset="1" stop-color="#FFBC47" stop-opacity="0"/></radialGradient><radialGradient id="c" cx="0" cy="0" r="1" gradientUnits="userSpaceOnUse" gradientTransform="rotate(-2.77 601.92 -294.884) scale(7.6914 6.0858)"><stop stop-color="#FF4C00"/><stop offset=".154" stop-color="#FF4C00"/><stop offset=".179" stop-color="#FF4C00"/><stop offset=".4" stop-color="#FB4C0B" stop-opacity=".732"/><stop offset=".78" stop-color="#EF4B27" stop-opacity=".268"/><stop offset="1" stop-color="#E74A3A" stop-opacity="0"/></radialGradient><radialGradient id="d" cx="0" cy="0" r="1" gradientUnits="userSpaceOnUse" gradientTransform="rotate(-177.23 17.785 13.952) scale(7.6914 6.0858)"><stop stop-color="#FF4C00"/><stop offset=".154" stop-color="#FF4C00"/><stop offset=".179" stop-color="#FF4C00"/><stop offset=".4" stop-color="#FB4C0B" stop-opacity=".732"/><stop offset=".78" stop-color="#EF4B27" stop-opacity=".268"/><stop offset="1" stop-color="#E74A3A" stop-opacity="0"/></radialGradient><radialGradient id="h" cx="0" cy="0" r="1" gradientUnits="userSpaceOnUse" gradientTransform="matrix(3.23654 .56957 -.27481 1.5616 32.198 23.677)"><stop offset=".001" stop-color="#7A4400"/><stop offset="1" stop-color="#643800"/></radialGradient><radialGradient id="j" cx="0" cy="0" r="1" gradientUnits="userSpaceOnUse" gradientTransform="rotate(170.019 7.81 12.585) scale(3.28627 1.58559)"><stop offset=".001" stop-color="#7A4400"/><stop offset="1" stop-color="#643800"/></radialGradient><radialGradient id="l" cx="0" cy="0" r="1" gradientUnits="userSpaceOnUse" gradientTransform="rotate(-177.23 18.373 5.19) scale(7.6914 6.0858)"><stop stop-color="#FF4C00"/><stop offset=".154" stop-color="#FF4C00"/><stop offset=".179" stop-color="#FF4C00"/><stop offset=".4" stop-color="#FB4C0B" stop-opacity=".732"/><stop offset=".78" stop-color="#EF4B27" stop-opacity=".268"/><stop offset="1" stop-color="#E74A3A" stop-opacity="0"/></radialGradient><radialGradient id="m" cx="0" cy="0" r="1" gradientUnits="userSpaceOnUse" gradientTransform="rotate(-177.23 19.919 19.466) scale(7.6914 6.0858)"><stop stop-color="#FF4C00"/><stop offset=".154" stop-color="#FF4C00"/><stop offset=".179" stop-color="#FF4C00"/><stop offset=".4" stop-color="#FB4C0B" stop-opacity=".732"/><stop offset=".78" stop-color="#EF4B27" stop-opacity=".268"/><stop offset="1" stop-color="#E74A3A" stop-opacity="0"/></radialGradient><radialGradient id="n" cx="0" cy="0" r="1" gradientUnits="userSpaceOnUse" gradientTransform="rotate(-177.23 5.498 17.737) scale(7.6914 6.0858)"><stop stop-color="#FF4C00"/><stop offset=".154" stop-color="#FF4C00"/><stop offset=".179" stop-color="#FF4C00"/><stop offset=".4" stop-color="#FB4C0B" stop-opacity=".732"/><stop offset=".78" stop-color="#EF4B27" stop-opacity=".268"/><stop offset="1" stop-color="#E74A3A" stop-opacity="0"/></radialGradient><radialGradient id="o" cx="0" cy="0" r="1" gradientUnits="userSpaceOnUse" gradientTransform="matrix(8.06935 -4.54833 3.608 6.40109 32.835 7.687)"><stop offset=".248" stop-color="red"/><stop offset=".864" stop-color="#C20000"/></radialGradient><radialGradient id="p" cx="0" cy="0" r="1" gradientUnits="userSpaceOnUse" gradientTransform="matrix(6.94745 -3.91597 3.10636 5.5111 33.064 7.119)"><stop offset=".248" stop-color="red"/><stop offset="1" stop-color="#C20000"/></radialGradient><radialGradient id="q" cx="0" cy="0" r="1" gradientUnits="userSpaceOnUse" gradientTransform="matrix(8.06935 -4.54833 3.608 6.40109 32.835 7.687)"><stop stop-color="#fff" stop-opacity=".25"/><stop offset="1" stop-color="#fff" stop-opacity="0"/></radialGradient><radialGradient id="r" cx="0" cy="0" r="1" gradientUnits="userSpaceOnUse" gradientTransform="rotate(-26.296 41.264 -71.995) scale(6.76158 3.34118)"><stop stop-color="#BD2719" stop-opacity=".25"/><stop offset="1" stop-color="#BD2719" stop-opacity="0"/></radialGradient><radialGradient id="s" cx="0" cy="0" r="1" gradientUnits="userSpaceOnUse" gradientTransform="matrix(2.23354 -.88842 .55187 1.38744 31.517 6.94)"><stop stop-color="#fff"/><stop offset="1" stop-color="#fff" stop-opacity="0"/></radialGradient><radialGradient id="t" cx="0" cy="0" r="1" gradientUnits="userSpaceOnUse" gradientTransform="matrix(1.50737 -1.29945 .80725 .93642 36.207 6.72)"><stop stop-color="#fff"/><stop offset="1" stop-color="#fff" stop-opacity="0"/></radialGradient><radialGradient id="v" cx="0" cy="0" r="1" gradientUnits="userSpaceOnUse" gradientTransform="rotate(-29.408 63.565 -3.106) scale(9.26292 7.3479)"><stop offset=".248" stop-color="red"/><stop offset=".864" stop-color="#C20000"/></radialGradient><radialGradient id="w" cx="0" cy="0" r="1" gradientUnits="userSpaceOnUse" gradientTransform="matrix(6.94745 -3.91597 3.10636 5.5111 9.945 30.244)"><stop offset=".248" stop-color="red"/><stop offset="1" stop-color="#C20000"/></radialGradient><radialGradient id="x" cx="0" cy="0" r="1" gradientUnits="userSpaceOnUse" gradientTransform="rotate(-29.408 63.565 -3.106) scale(9.26292 7.3479)"><stop stop-color="#fff" stop-opacity=".25"/><stop offset="1" stop-color="#fff" stop-opacity="0"/></radialGradient><radialGradient id="y" cx="0" cy="0" r="1" gradientUnits="userSpaceOnUse" gradientTransform="rotate(-26.296 79.207 -10.947) scale(6.76158 3.34118)"><stop stop-color="#BD2719" stop-opacity=".25"/><stop offset="1" stop-color="#BD2719" stop-opacity="0"/></radialGradient><radialGradient id="z" cx="0" cy="0" r="1" gradientUnits="userSpaceOnUse" gradientTransform="matrix(2.23354 -.88842 .55187 1.38744 8.396 30.064)"><stop stop-color="#fff"/><stop offset="1" stop-color="#fff" stop-opacity="0"/></radialGradient><radialGradient id="A" cx="0" cy="0" r="1" gradientUnits="userSpaceOnUse" gradientTransform="matrix(1.50737 -1.29945 .80725 .93642 13.087 29.846)"><stop stop-color="#fff"/><stop offset="1" stop-color="#fff" stop-opacity="0"/></radialGradient><radialGradient id="C" cx="0" cy="0" r="1" gradientUnits="userSpaceOnUse" gradientTransform="rotate(-29.408 85.661 -50.932) scale(9.26292 7.3479)"><stop offset=".248" stop-color="red"/><stop offset=".864" stop-color="#C20000"/></radialGradient><radialGradient id="D" cx="0" cy="0" r="1" gradientUnits="userSpaceOnUse" gradientTransform="matrix(6.94745 -3.91597 3.10636 5.5111 36.276 34.93)"><stop offset=".248" stop-color="red"/><stop offset="1" stop-color="#C20000"/></radialGradient><radialGradient id="E" cx="0" cy="0" r="1" gradientUnits="userSpaceOnUse" gradientTransform="rotate(-29.408 85.661 -50.932) scale(9.26292 7.3479)"><stop stop-color="#fff" stop-opacity=".25"/><stop offset="1" stop-color="#fff" stop-opacity="0"/></radialGradient><radialGradient id="F" cx="0" cy="0" r="1" gradientUnits="userSpaceOnUse" gradientTransform="rotate(-26.296 102.401 -64.966) scale(6.76158 3.34118)"><stop stop-color="#BD2719" stop-opacity=".25"/><stop offset="1" stop-color="#BD2719" stop-opacity="0"/></radialGradient><radialGradient id="G" cx="0" cy="0" r="1" gradientUnits="userSpaceOnUse" gradientTransform="matrix(2.23355 -.88842 .55187 1.38744 34.729 34.75)"><stop stop-color="#fff"/><stop offset="1" stop-color="#fff" stop-opacity="0"/></radialGradient><radialGradient id="H" cx="0" cy="0" r="1" gradientUnits="userSpaceOnUse" gradientTransform="matrix(1.50737 -1.29945 .80725 .93642 39.419 34.532)"><stop stop-color="#fff"/><stop offset="1" stop-color="#fff" stop-opacity="0"/></radialGradient><linearGradient id="e" x1="24.918" y1="29.508" x2="24.918" y2="33.808" gradientUnits="userSpaceOnUse"><stop offset=".001" stop-color="#3C2200"/><stop offset="1" stop-color="#512D00"/></linearGradient><linearGradient id="f" x1="16.943" y1="18.229" x2="17.199" y2="16.319" gradientUnits="userSpaceOnUse"><stop offset=".001" stop-color="#3C2200"/><stop offset="1" stop-color="#7A4400"/></linearGradient><linearGradient id="g" x1="32.892" y1="18.229" x2="32.636" y2="16.319" gradientUnits="userSpaceOnUse"><stop offset=".001" stop-color="#3C2200"/><stop offset="1" stop-color="#7A4400"/></linearGradient><linearGradient id="i" x1="32.676" y1="21.031" x2="32.32" y2="23.124" gradientUnits="userSpaceOnUse"><stop offset=".001" stop-color="#3C2200"/><stop offset="1" stop-color="#512D00"/></linearGradient><linearGradient id="k" x1="17.13" y1="21.014" x2="17.486" y2="23.107" gradientUnits="userSpaceOnUse"><stop offset=".001" stop-color="#3C2200"/><stop offset="1" stop-color="#512D00"/></linearGradient><linearGradient id="u" x1="35.75" y1="19.665" x2="36.897" y2="4.2" gradientUnits="userSpaceOnUse"><stop stop-color="#860805"/><stop offset="1" stop-color="#BD2719" stop-opacity="0"/></linearGradient><linearGradient id="B" x1="12.631" y1="42.791" x2="13.778" y2="27.326" gradientUnits="userSpaceOnUse"><stop stop-color="#860805"/><stop offset="1" stop-color="#BD2719" stop-opacity="0"/></linearGradient><linearGradient id="I" x1="38.963" y1="47.477" x2="40.11" y2="32.012" gradientUnits="userSpaceOnUse"><stop stop-color="#860805"/><stop offset="1" stop-color="#BD2719" stop-opacity="0"/></linearGradient></defs></svg>