<svg width="48" height="48" fill="none" xmlns="http://www.w3.org/2000/svg"><circle cx="23.894" cy="23.894" r="23.894" fill="#418CFE"/><path d="M24.435 12.7c-.837 0-1.154.669-1.09 1.966.043.855.332 3.238-.876 4.446-1.126 1.126-1.454 1.027-2.736 2.479-1.282 1.452-2.351 1.154-3.846 1.025-1.88-.161-1.24 10.267.085 10.088.94-.128 3.078-.385 3.419-.385.342 0 2.687 1.817 4.745 1.837 3.333.035 5.172-.555 5.172-.555l.976-2.216.327-6.757-1.56-3.252s-2.094.343-2.693-.597c-.598-.94.47-2.095.47-4.788S24.863 12.7 24.435 12.7z" fill="url(#a)"/><path d="m29.425 33.58-.126-.462c-.376-.04-.86.131-1.519.126-3.152-.023-6.166-.928-7.459-1.952-.847-.67-1.217-1.563-1.817-1.306-.738.317-2.832.81-3.603-.165.216 1.668.6 2.949 1.07 2.884.94-.128 3.079-.385 3.42-.385.342 0 2.62 1.77 4.745 1.837 2.747.09 5.186-.383 5.186-.383l.103-.194z" fill="url(#b)"/><path d="M26.36 20.779c-.598-.94.47-2.095.47-4.788S24.862 12.7 24.434 12.7c-.112 0-.213.013-.302.036 1.744.109 2.794 2.309 2.192 4.577-.488 1.84-.73 3.314.066 4.18.515.56 1.539.465 2.66-.117 0 0-2.094.343-2.692-.597z" fill="url(#c)"/><path d="M26.476 21.738c-1.027.342-3.616 1.146-5.58 2.925-4.972 4.51 3.519 5.075 5.27 8.93.337.738 2.295-3.866 2.295-3.866l.634-1.066-1.83-4.875-.79-2.048z" fill="url(#d)"/><path d="M26.627 22.129c-1.026.342-5.216 3.026-5.216 4.352 0 3.826 2.901 1.938 4.47 6.451.218.625.985 1.152.985 1.152.635-.52 1.597-4.354 1.597-4.354l.634-1.066-1.831-4.875-.639-1.66z" fill="url(#e)"/><path d="m28.994 33.854 1.964-2.244.432-9.377-4.914-.495c-1.127.607-1.258 1.438-.839 2.77.177.562-.54.723-.587 2.357-.031 1.132.71 1.138.71 1.474 0 .336-.369.306-.492 1.282-.175 1.396.994 1.422.994 1.72 0 .299-.65.477-.61 1.614.051 1.443-2.628 1.15-4.438-.163-.745-.539-1.393-.594-1.9-.473l.078-.003c.343 0 2.639 1.837 4.745 1.837 2.462.003 4.165-.14 4.857-.3z" fill="url(#f)"/><path d="M29.445 22.356c-1.517 0-2.35 1.482-1.774 2.622.577 1.14-1.069 2.648-.897 3.39.17.742.47 2.62.705 2.93.235.311-.385 1.016-.385 1.016l1.924.235 1.795-.791-.065-5.428.192-3.399-1.495-.575z" fill="url(#g)"/><path d="M24.435 12.7c-.837 0-1.154.669-1.09 1.966.043.855.332 3.238-.876 4.446-1.126 1.126-1.454 1.025-2.736 2.479-.833.944-1.575 1.148-2.403 1.14-.447-.005-.918-.07-1.443-.115 0 .325.094.317 1.334.66.142.038.276.065.407.081.063.197.098.396.09.593-.046 1.08.192 2.41.373 1.027.071-.537.29-1.139.604-1.746.47-.188.85-.54 1.188-.95.629-.764 1.175-1.442 2.756-2.467 1.582-1.027 1.378-3.847 1.25-4.788-.127-.941-.042-2.326.546-2.326z" fill="url(#h)"/><path d="M30.595 21.334c-1.795-.068-5.02-.17-5.09 1.71-.052 1.362.914 1.81 2.41 1.866l2.861.11c.62.023 2.568.01 2.586-1.634.024-2.057-2.767-2.052-2.767-2.052z" fill="url(#i)"/><path d="M27.645 28.129c-.482-.014-1.909.347-2.043 1.253-.105.713.259 1.636 1.502 1.853 1.573.276 4.198.42 5.177.054.438-.164.82-.621.839-1.317.02-.695-.495-1.63-1.618-1.663-1.123-.034-1.707-.016-2.345-.09-.767-.093-1.128-.08-1.512-.09z" fill="url(#j)"/><path d="M27.145 31.299c-.546 0-1.218.48-1.218 1.282 0 .801.208 1.394 1.378 1.62 1.17.223 3.046.031 3.75-.193.55-.175.754-.69.754-1.54 0-.85-.528-.997-1.105-.997s-1.278.105-1.678.083c-1.118-.058-1.337-.255-1.881-.255z" fill="url(#k)"/><path d="M30.442 21.714c-1.566-.06-4.382-.15-4.44 1.336-.04 1.077.805 1.433 2.11 1.484 1.307.05 4.741.112 4.752-1.19.014-1.625-2.422-1.63-2.422-1.63z" fill="url(#l)"/><path d="M27.79 28.51c-.418-.012-1.592.09-1.704.955-.075.586.229 1.339 1.31 1.52 1.373.229 3.656.35 4.51.05.38-.134.712-.507.728-1.077.016-.569-.508-1.267-1.484-1.294-.976-.029-1.495.061-2.053 0-.669-.076-.973-.142-1.308-.153z" fill="url(#m)"/><path d="M27.376 31.59c-.471 0-1.053.388-1.053 1.033 0 .645.18 1.123 1.192 1.304 1.013.182 2.635.026 3.244-.154.475-.14.651-.555.651-1.24 0-.684-.457-.804-.957-.804-.5 0-1.105.085-1.45.068-.966-.047-1.155-.207-1.627-.207z" fill="url(#n)"/><path d="M17.136 32.554c-1.262-.543-2.441-7.97-.116-9.836-.354-.022-.728-.07-1.133-.104-1.88-.16-1.24 10.268.085 10.088.3-.04.719-.093 1.164-.148z" fill="url(#o)"/><path d="M27.09 23.05c.039-1.024.854-1.514 1.885-1.741-1.646.038-3.419.345-3.472 1.733-.052 1.362.915 1.81 2.41 1.867.163.006.32.013.466.017-.839-.244-1.33-.796-1.29-1.876z" fill="url(#p)"/><path d="M27.23 21.495c-.957.21-1.692.662-1.727 1.549-.043 1.133.618 1.632 1.701 1.802-2.195-.877-1.408-3.037.026-3.351z" fill="url(#q)"/><path opacity=".65" d="M24.68 32.264c-.254.582-1.459.618-2.694.082-1.233-.536-2.028-1.444-1.775-2.026.254-.582 1.458-.619 2.693-.082 1.233.537 2.028 1.444 1.776 2.026z" fill="url(#r)"/><path opacity=".75" d="M31.939 23.324c-.013.787-1.065 1.16-2.215 1.229-.941.056-1.985-.61-1.958-1.377.027-.768.164-1.45 2.118-1.381 1.154.04 2.067.761 2.055 1.53z" fill="url(#s)"/><path opacity=".75" d="M32.148 30.238c-.006 1.088-1.205.88-2.354.955-1.459.096-2.425-.358-2.427-1.126 0-.768.553-1.33 2.51-1.332 1.153-.002 2.28.104 2.271 1.503z" fill="url(#t)"/><path opacity=".75" d="M31.093 32.983c-.006.928-1.094 1.055-2.124 1.055s-2.15-.546-2.15-1.2c0-.656.494-1.133 2.243-1.136 1.031-.003 2.04.088 2.031 1.28z" fill="url(#u)"/><path d="M26.94 29.602c.164-1.24 1.114-1.167 2.204-1.296a43.855 43.855 0 0 0-1.782-.108 1.951 1.951 0 0 0-.385.002c-.408.09-.87.276-1.144.623a1.497 1.497 0 0 0-.22.474l-.014.082c-.088.716.259 1.636 1.501 1.854.18.031.373.061.576.088l.317.04c.03.002.062.007.091.01-.682-.322-1.264-.858-1.144-1.77z" fill="url(#v)"/><path d="M27.244 28.19c-.085-.003-.174 0-.267.01-.411.092-.876.28-1.15.632-.09.131-.163.286-.212.466-.005.027-.008.053-.014.082-.126.705.224 1.536 1.309 1.81-1.85-1.019-1.06-2.998.334-3z" fill="url(#w)"/><path d="M28.323 31.488c-.548-.08-.773-.19-1.178-.19-.546 0-1.218.482-1.218 1.283 0 .292.029.555.118.782.092.19.226.366.41.514.202.14.477.25.85.322.251.047.533.077.83.09-.573-.333-1.54-.511-1.337-1.623.222-1.227.955-1.061 1.525-1.178z" fill="url(#x)"/><path d="M27.12 31.299a1.274 1.274 0 0 0-1.195 1.282c0 .735.176 1.293 1.106 1.555-1.45-.934-.986-2.506.088-2.837z" fill="url(#y)"/><path d="M33.361 23.386a1.945 1.945 0 0 0-.058-.505c.143.642-.428 1.28-1.945 1.591-1.006.205-3.676.462-5.524-.271.4.483 1.132.675 2.079.711l2.862.109c.62.022 2.567.011 2.586-1.635z" fill="url(#z)"/><path d="M33.121 29.927c-.001-.69-.519-1.588-1.618-1.62-1.121-.033-1.706-.016-2.345-.09-.768-.09-1.129-.077-1.514-.088-.29-.008-1.007.079-1.495.381.55.191 1.442.477 2.699.396 3.012-.194 3.868.17 4.273 1.02z" fill="url(#A)"/><path d="M27 25.019c-.64-.013-1.66.364-1.686 1.695-.027 1.331 1.137 1.648 1.65 1.658.512.01 2.305.132 4.517.176 2.213.044 2.508-1.143 2.52-1.764.013-.622-.381-1.748-1.712-1.774-3.845-.078-5.29.009-5.29.009z" fill="url(#B)"/><path d="M27.343 25.404c-.556-.01-1.441.278-1.462 1.304-.02 1.027.992 1.275 1.439 1.282.446.01 1.838.226 3.926.145 1.923-.074 2.178-.876 2.188-1.356.009-.48-.057-1.348-1.213-1.372-3.343-.064-4.878-.003-4.878-.003z" fill="url(#C)"/><path d="M26.689 26.585c.064-1.366 1.017-1.37 2.094-1.605a38.55 38.55 0 0 0-1.785.039c-.64-.013-1.659.364-1.686 1.695-.027 1.331 1.137 1.648 1.65 1.658.184.003.536.022 1.014.045-.708-.293-1.334-.828-1.287-1.832z" fill="url(#D)"/><path opacity=".75" d="M32.875 26.727c.044 1.088-1.163 1.293-2.315 1.348-1.15.056-2.431-.526-2.468-1.294-.036-.768.49-1.353 2.446-1.448 1.15-.057 2.28-.003 2.337 1.394z" fill="url(#E)"/><path d="M26.88 25.02c-.64.035-1.541.444-1.566 1.693-.026 1.265 1.025 1.613 1.569 1.654-2.107-.85-1.416-3.222-.003-3.346z" fill="url(#F)"/><path d="M33.998 26.65c-.278 1.968-5.483 1.608-8.295 1.186.38.407.945.53 1.26.536.513.011 2.306.132 4.518.177 2.211.044 2.508-1.144 2.52-1.765.002-.043 0-.088-.003-.134z" fill="url(#G)"/><path d="M31.391 31.032c-1.007.044-3.675.375-5.62-.665.216.403.637.746 1.333.867 1.573.276 4.198.42 5.177.054.438-.164.82-.622.839-1.317-.063.604-.639 1.014-1.729 1.061z" fill="url(#H)"/><path d="M31.73 33.22c-.66.502-1.802.799-3.448.52-1.018-.172-1.715-.23-2.174-.243.183.33.538.575 1.197.702 1.17.223 3.046.031 3.75-.193.362-.115.573-.378.675-.787z" fill="url(#I)"/><path d="M26.142 31.86c1.22-.445 1.818.215 3.125.215 1.356 0 2.003-.548 2.484-.027-.152-.481-.585-.577-1.049-.577-.577 0-1.277.105-1.678.083-1.116-.058-1.335-.257-1.881-.257-.352.002-.759.204-1.001.563z" fill="url(#J)"/><path d="M15.972 32.704c.94-.128 3.077-.385 3.419-.385-3.1-2.216-1.722-6.928-.577-9.312.16-.334.26-.609.312-.842-1.032.787-1.986.56-3.24.451-1.88-.16-1.237 10.268.086 10.088z" fill="url(#K)"/><path d="M17.927 30.562c-.32-.427-.042.492.215 1.155.217.564-1.454.23-2.735.369.167.413.358.646.566.618.94-.128 3.077-.385 3.42-.385-.483-.41-1.146-1.33-1.466-1.757z" fill="url(#L)"/><path d="M19.392 32.32c-.266-.226-.586-.608-.875-.977 0 0-1.556.796-3.225.421.193.609.423.975.68.938.941-.127 3.078-.383 3.42-.383z" fill="url(#M)"/><path opacity=".75" d="M25.432 17.068c-.609.131-1.102-.71-1.381-1.692-.23-.802.082-1.824.68-1.941.597-.115 1.15-.12 1.48 1.582.194 1.004-.183 1.924-.779 2.051z" fill="url(#N)"/><path d="M27.12 31.299a1.297 1.297 0 0 0-.847.462 1.26 1.26 0 0 0-.289.902c.002.328.052.666.238.932.185.268.495.429.81.54-.324-.072-.662-.206-.88-.49-.219-.28-.27-.644-.28-.98-.014-.343.095-.708.337-.96.234-.256.573-.412.91-.406zM26.582 28.317c-.221.096-.425.227-.593.39-.172.16-.264.38-.325.605v-.003c-.08.408-.013.842.227 1.182.235.344.613.57 1.019.7-.417-.08-.836-.282-1.098-.643a1.508 1.508 0 0 1-.263-.602 1.7 1.7 0 0 1 .017-.656l.002-.003c.066-.235.182-.47.375-.63.184-.165.412-.266.639-.34z" fill="#804B24"/><path d="M26.88 25.02c-.396.047-.78.21-1.054.488s-.422.66-.446 1.049c-.04.388.024.791.244 1.113.22.323.576.54.96.651-.392-.07-.781-.265-1.029-.6-.252-.333-.32-.772-.285-1.174.033-.405.192-.818.498-1.1a1.638 1.638 0 0 1 1.112-.426zM27.231 21.494c-.424.116-.845.276-1.18.55a1.338 1.338 0 0 0-.49 1.128c-.006.43.134.868.462 1.153.322.289.756.427 1.185.519-.436-.05-.887-.161-1.241-.454-.363-.29-.516-.771-.518-1.216-.023-.453.18-.926.55-1.197.36-.276.799-.407 1.232-.483zM25.771 30.367c.292.504.852.766 1.407.842.563.087 1.132.146 1.7.183a19.3 19.3 0 0 0 1.71.075c.284-.003.57-.01.852-.039.284-.022.57-.052.842-.142-.539.202-1.124.235-1.693.254a18.927 18.927 0 0 1-1.72-.04c-.57-.048-1.14-.12-1.704-.22a2.277 2.277 0 0 1-.815-.286 1.56 1.56 0 0 1-.579-.627z" fill="#804B24"/><path d="M25.703 27.834c.218.218.5.361.794.434.291.087.599.068.908.082l1.843.053 1.844.092c.612.038 1.233.046 1.82-.155-.571.243-1.213.264-1.822.23l-1.843-.053-1.844-.091c-.302-.02-.621-.007-.92-.104a1.738 1.738 0 0 1-.78-.488zM32.29 25.01c-.441.001-.881.014-1.323.01l-1.323.002-1.321.02c-.44.002-.882.004-1.32.021H27c-.434-.008-.884.14-1.196.451-.318.308-.468.754-.489 1.2a2.26 2.26 0 0 1 .096-.663c.07-.216.188-.417.349-.58.322-.329.784-.493 1.241-.494h-.003a34.49 34.49 0 0 1 2.648-.04 56.93 56.93 0 0 1 2.644.073z" fill="#804B24"/><defs><linearGradient id="a" x1="29.121" y1="23.25" x2="22.691" y2="23.509" gradientUnits="userSpaceOnUse"><stop offset=".001" stop-color="#F0C492"/><stop offset="1" stop-color="#F8DBBA"/></linearGradient><linearGradient id="b" x1="23.715" y1="25.617" x2="19.601" y2="41.736" gradientUnits="userSpaceOnUse"><stop offset=".312" stop-color="#F0C492" stop-opacity="0"/><stop offset="1" stop-color="#E6AF74"/></linearGradient><linearGradient id="c" x1="17.851" y1="16.682" x2="30.257" y2="17.611" gradientUnits="userSpaceOnUse"><stop offset=".312" stop-color="#F0C492" stop-opacity="0"/><stop offset="1" stop-color="#E6AF74"/></linearGradient><linearGradient id="d" x1="14.061" y1="27.707" x2="32.014" y2="27.707" gradientUnits="userSpaceOnUse"><stop offset=".312" stop-color="#F0C492" stop-opacity="0"/><stop offset="1" stop-color="#E6AF74"/></linearGradient><linearGradient id="e" x1="13.976" y1="28.106" x2="30.612" y2="28.106" gradientUnits="userSpaceOnUse"><stop offset=".312" stop-color="#F0C492" stop-opacity="0"/><stop offset="1" stop-color="#E6AF74"/></linearGradient><linearGradient id="f" x1="10.817" y1="27.78" x2="44.156" y2="28.165" gradientUnits="userSpaceOnUse"><stop stop-color="#D2A374" stop-opacity="0"/><stop offset="1" stop-color="#B88653"/></linearGradient><linearGradient id="g" x1="26.199" y1="27.842" x2="30.637" y2="27.259" gradientUnits="userSpaceOnUse"><stop stop-color="#643800" stop-opacity="0"/><stop offset="1" stop-color="#643800"/></linearGradient><linearGradient id="i" x1="29.358" y1="25.094" x2="29.7" y2="16.588" gradientUnits="userSpaceOnUse"><stop offset=".001" stop-color="#F0C492"/><stop offset="1" stop-color="#F8DBBA"/></linearGradient><linearGradient id="j" x1="33.058" y1="29.817" x2="26.756" y2="29.817" gradientUnits="userSpaceOnUse"><stop offset=".001" stop-color="#F0C492"/><stop offset="1" stop-color="#F8DBBA"/></linearGradient><linearGradient id="k" x1="33.058" y1="32.799" x2="26.76" y2="32.799" gradientUnits="userSpaceOnUse"><stop offset=".001" stop-color="#F0C492"/><stop offset="1" stop-color="#F8DBBA"/></linearGradient><linearGradient id="l" x1="24.881" y1="23.219" x2="28.161" y2="23.145" gradientUnits="userSpaceOnUse"><stop offset=".001" stop-color="#F0C492"/><stop offset="1" stop-color="#EFD8B7"/></linearGradient><linearGradient id="m" x1="31.647" y1="29.862" x2="28.303" y2="29.862" gradientUnits="userSpaceOnUse"><stop offset=".001" stop-color="#F0C492"/><stop offset="1" stop-color="#EFD8B7"/></linearGradient><linearGradient id="n" x1="31.038" y1="36.248" x2="25.46" y2="27.059" gradientUnits="userSpaceOnUse"><stop offset=".001" stop-color="#F0C492"/><stop offset="1" stop-color="#EFD8B7"/></linearGradient><linearGradient id="o" x1="16.709" y1="27.66" x2="14.739" y2="27.66" gradientUnits="userSpaceOnUse"><stop offset=".312" stop-color="#F0C492" stop-opacity="0"/><stop offset="1" stop-color="#E6AF74"/></linearGradient><linearGradient id="p" x1="27.565" y1="23.119" x2="25.781" y2="23.119" gradientUnits="userSpaceOnUse"><stop offset=".312" stop-color="#F0C492" stop-opacity="0"/><stop offset="1" stop-color="#E6AF74"/></linearGradient><linearGradient id="q" x1="27.245" y1="23.17" x2="25.193" y2="23.17" gradientUnits="userSpaceOnUse"><stop offset=".312" stop-color="#F0C492" stop-opacity="0"/><stop offset="1" stop-color="#E6AF74"/></linearGradient><linearGradient id="v" x1="27.779" y1="29.782" x2="25.193" y2="29.782" gradientUnits="userSpaceOnUse"><stop offset=".312" stop-color="#F0C492" stop-opacity="0"/><stop offset="1" stop-color="#E6AF74"/></linearGradient><linearGradient id="w" x1="27.23" y1="29.692" x2="25.837" y2="29.692" gradientUnits="userSpaceOnUse"><stop offset=".312" stop-color="#F0C492" stop-opacity="0"/><stop offset="1" stop-color="#E6AF74"/></linearGradient><linearGradient id="x" x1="27.686" y1="32.816" x2="24.662" y2="32.26" gradientUnits="userSpaceOnUse"><stop offset=".312" stop-color="#F0C492" stop-opacity="0"/><stop offset="1" stop-color="#E6AF74"/></linearGradient><linearGradient id="y" x1="27.373" y1="32.717" x2="26.095" y2="32.717" gradientUnits="userSpaceOnUse"><stop offset=".312" stop-color="#F0C492" stop-opacity="0"/><stop offset="1" stop-color="#E6AF74"/></linearGradient><linearGradient id="z" x1="29.411" y1="22.768" x2="30.223" y2="26.701" gradientUnits="userSpaceOnUse"><stop stop-color="#E6AF74" stop-opacity="0"/><stop offset="1" stop-color="#E6AF74"/></linearGradient><linearGradient id="A" x1="29.513" y1="30.637" x2="29.801" y2="27.303" gradientUnits="userSpaceOnUse"><stop stop-color="#D2A374" stop-opacity="0"/><stop offset="1" stop-color="#B88653"/></linearGradient><linearGradient id="B" x1="33.058" y1="26.763" x2="26.76" y2="26.763" gradientUnits="userSpaceOnUse"><stop offset=".001" stop-color="#F0C492"/><stop offset="1" stop-color="#F8DBBA"/></linearGradient><linearGradient id="C" x1="29.441" y1="28.932" x2="30.039" y2="22.884" gradientUnits="userSpaceOnUse"><stop offset=".001" stop-color="#F0C492"/><stop offset="1" stop-color="#EFD8B7"/></linearGradient><linearGradient id="D" x1="28.388" y1="26.698" x2="24.784" y2="26.698" gradientUnits="userSpaceOnUse"><stop offset=".312" stop-color="#F0C492" stop-opacity="0"/><stop offset="1" stop-color="#E6AF74"/></linearGradient><linearGradient id="F" x1="26.713" y1="26.694" x2="25.575" y2="26.694" gradientUnits="userSpaceOnUse"><stop offset=".312" stop-color="#F0C492" stop-opacity="0"/><stop offset="1" stop-color="#E6AF74"/></linearGradient><linearGradient id="G" x1="29.71" y1="26.347" x2="30.394" y2="30.696" gradientUnits="userSpaceOnUse"><stop stop-color="#E6AF74" stop-opacity="0"/><stop offset="1" stop-color="#E6AF74"/></linearGradient><linearGradient id="H" x1="29.236" y1="29.712" x2="30.988" y2="33.516" gradientUnits="userSpaceOnUse"><stop stop-color="#E6AF74" stop-opacity="0"/><stop offset="1" stop-color="#E6AF74"/></linearGradient><linearGradient id="I" x1="28.886" y1="33.048" x2="29.143" y2="35.452" gradientUnits="userSpaceOnUse"><stop stop-color="#E6AF74" stop-opacity="0"/><stop offset="1" stop-color="#E6AF74"/></linearGradient><linearGradient id="J" x1="28.947" y1="32.684" x2="28.947" y2="30.944" gradientUnits="userSpaceOnUse"><stop stop-color="#FFBA47" stop-opacity="0"/><stop offset="1" stop-color="#C66F34"/></linearGradient><linearGradient id="K" x1="17.199" y1="27.882" x2="11.75" y2="36.121" gradientUnits="userSpaceOnUse"><stop offset=".312" stop-color="#F0C492" stop-opacity="0"/><stop offset="1" stop-color="#D2A374"/></linearGradient><linearGradient id="M" x1="17.383" y1="30.456" x2="17.255" y2="35.36" gradientUnits="userSpaceOnUse"><stop stop-color="#F0C492" stop-opacity="0"/><stop offset="1" stop-color="#E6AF74"/></linearGradient><radialGradient id="h" cx="0" cy="0" r="1" gradientUnits="userSpaceOnUse" gradientTransform="translate(16.496 18.111) scale(9.383)"><stop stop-color="#F0C492" stop-opacity="0"/><stop offset="1" stop-color="#F0C492"/></radialGradient><radialGradient id="r" cx="0" cy="0" r="1" gradientUnits="userSpaceOnUse" gradientTransform="matrix(2.2957 .99942 -.46401 1.06586 22.288 30.843)"><stop stop-color="#F8E6D2"/><stop offset=".724" stop-color="#F8E6D2" stop-opacity="0"/></radialGradient><radialGradient id="s" cx="0" cy="0" r="1" gradientUnits="userSpaceOnUse" gradientTransform="matrix(2.1408 .07577 -.04973 1.4051 29.884 23.181)"><stop stop-color="#F8E6D2"/><stop offset="1" stop-color="#F8E6D2" stop-opacity="0"/></radialGradient><radialGradient id="t" cx="0" cy="0" r="1" gradientUnits="userSpaceOnUse" gradientTransform="matrix(2.30127 -.00218 .00118 1.2401 29.762 30.082)"><stop stop-color="#F8E6D2"/><stop offset="1" stop-color="#F8E6D2" stop-opacity="0"/></radialGradient><radialGradient id="u" cx="0" cy="0" r="1" gradientUnits="userSpaceOnUse" gradientTransform="matrix(2.10732 -.00198 .00124 1.3182 28.956 32.87)"><stop stop-color="#F8E6D2"/><stop offset="1" stop-color="#F8E6D2" stop-opacity="0"/></radialGradient><radialGradient id="E" cx="0" cy="0" r="1" gradientUnits="userSpaceOnUse" gradientTransform="rotate(-2.734 574.73 -625.1) scale(2.44506 1.60397)"><stop stop-color="#F8E6D2"/><stop offset="1" stop-color="#F8E6D2" stop-opacity="0"/></radialGradient><radialGradient id="L" cx="0" cy="0" r="1" gradientUnits="userSpaceOnUse" gradientTransform="translate(17.413 31.564) scale(1.61837)"><stop stop-color="#F0C492" stop-opacity="0"/><stop offset="1" stop-color="#F0C492"/></radialGradient><radialGradient id="N" cx="0" cy="0" r="1" gradientUnits="userSpaceOnUse" gradientTransform="matrix(.34661 1.79372 -1.05281 .20344 25.136 15.242)"><stop stop-color="#F8E6D2"/><stop offset="1" stop-color="#F8E6D2" stop-opacity="0"/></radialGradient></defs></svg>