<svg width="24" height="24" fill="none" xmlns="http://www.w3.org/2000/svg"><path d="M11.947 1c-1.778.026-5.598.315-7.732 2.261C2.63 4.838 2.071 7.141 2.013 10c-.058 2.856-.134 8.213 5.062 9.665h.003l-.004 2.214s-.034.896.563 1.08c.717.221 1.139-.459 1.827-1.194.376-.404.897-.994 1.289-1.448 3.552.298 6.285-.382 6.597-.482.716-.23 4.776-.748 5.436-6.102.683-5.519-.332-9.011-2.159-10.584-.55-.504-2.773-2.109-7.727-2.13 0 0-.364-.023-.957-.015L11.947 1zM12 2.552c.502-.004.811.016.811.016 4.191.018 6.198 1.272 6.664 1.692 1.545 1.315 2.334 4.462 1.758 9.072v.002c-.557 4.472-3.85 4.752-4.458 4.945-.258.083-2.659.676-5.677.48 0 0-2.248 2.696-2.95 3.396-.11.11-.24.153-.324.132-.12-.03-.154-.172-.153-.38l.019-3.683c-4.394-1.21-4.138-5.767-4.088-8.153.05-2.387.501-4.344 1.842-5.66 1.808-1.624 5.05-1.849 6.56-1.86L12 2.552zm.35 2.385a.281.281 0 0 0-.266.277.278.278 0 0 0 .262.28c1.499.009 2.719.492 3.717 1.459.99.959 1.494 2.262 1.506 3.973a.281.281 0 0 0 .48.192.278.278 0 0 0 .08-.196c-.012-1.819-.57-3.296-1.675-4.367-1.098-1.063-2.484-1.607-4.103-1.618zm-3.654.637a.91.91 0 0 0-.568.108l-.01.001a4.255 4.255 0 0 0-1.057.855c-.001.003-.005.003-.007.007-.246.296-.387.585-.424.869a1.157 1.157 0 0 0 .054.495l.011.01c.125.44.437 1.169 1.112 2.386.387.704.833 1.375 1.334 2.004.25.316.517.617.803.902l.122.121c.286.282.59.55.908.798.633.497 1.308.941 2.016 1.326 1.226.672 1.962.981 2.403 1.106l.01.012c.16.053.33.07.497.05.286-.032.579-.173.875-.42.004 0 .003-.003.008-.005.34-.303.63-.66.858-1.053l.002-.009c.208-.396.139-.772-.166-1.027-.004 0-.644-.531-.957-.76a12.315 12.315 0 0 0-1.027-.651c-.47-.261-.952-.097-1.15.16l-.413.516c-.213.26-.606.226-.606.226-2.88-.73-3.65-3.626-3.65-3.626s-.034-.39.23-.601l.519-.41c.255-.198.42-.676.157-1.145-.2-.352-.42-.693-.656-1.022a26.016 26.016 0 0 0-.765-.949.76.76 0 0 0-.464-.272l.001-.002zm4.143.807a.28.28 0 0 0-.288.27.277.277 0 0 0 .271.285c1.07.078 1.861.428 2.44 1.055.582.63.859 1.397.837 2.356a.28.28 0 0 0 .276.264.284.284 0 0 0 .287-.253c.023-1.077-.309-2.01-.985-2.744-.683-.743-1.64-1.149-2.814-1.234h-.024zm.427 1.494a.283.283 0 0 0-.276.263.281.281 0 0 0 .265.294c.483.025.807.16 1.027.386.222.225.358.569.384 1.067a.279.279 0 0 0 .292.241.281.281 0 0 0 .266-.268c-.028-.59-.198-1.08-.535-1.427-.339-.347-.824-.527-1.402-.557h-.017l-.004.001z" fill="#fff"/></svg>