<svg width="165" height="40" fill="none" xmlns="http://www.w3.org/2000/svg"><path d="M0 6.226A6.226 6.226 0 0 1 6.226 0h27.548A6.226 6.226 0 0 1 40 6.226v27.548A6.226 6.226 0 0 1 33.774 40H6.226A6.226 6.226 0 0 1 0 33.774V6.226z" fill="#3B3D43"/><path fill-rule="evenodd" clip-rule="evenodd" d="M30.246 13.496a4.147 4.147 0 0 0-.961 2.667l-.002.218-.084.093a2.804 2.804 0 0 0-.692 1.757c-.003.12-.001.127.028.157a.099.099 0 0 0 .075.033l.042.003.36-.269.361-.268.006.092c.006.105.023.14.076.16.048.017 2.065.015 2.103-.002.047-.021.063-.058.07-.157l.005-.092.352.262c.25.187.36.264.383.269.044.009.096-.018.118-.063.031-.06.01-.344-.046-.614a2.8 2.8 0 0 0-.633-1.268l-.084-.093-.002-.218a3.854 3.854 0 0 0-.084-.83c-.152-.758-.528-1.498-1-1.968-.08-.08-.127-.1-.175-.079-.024.011-.152.135-.216.21zM30.2 14.92a.557.557 0 0 1 .607 0 .695.695 0 0 1 .09.069c.14.138.196.378.134.561a.672.672 0 0 1-.134.223.582.582 0 0 1-.563.133.675.675 0 0 1-.224-.133.573.573 0 0 1-.158-.392c0-.192.09-.358.248-.46zm-.244 3.877a.713.713 0 0 0-.136.363c-.018.18.12.559.434 1.184.168.334.18.353.25.353.069 0 .082-.02.249-.35.314-.627.453-1.006.435-1.187a.684.684 0 0 0-1.1-.494.476.476 0 0 0-.132.131z" fill="#1874FF"/><path fill-rule="evenodd" clip-rule="evenodd" d="M9.597 16.429c.136-.1.346-.031.373.136l.772 4.83c.003.015.023.016.027.002l1.41-4.692c.145-.372.363-.557.654-.557h1.426c.33 0 .549.185.655.557l1.409 4.692c.004.014.024.013.027-.002l1.278-7.994c.04-.303.245-.454.615-.454H20.7l2.1.046s.187.024.364.088a.382.382 0 0 1 .17.082c.048.03.088.067.113.108a.446.446 0 0 1 .055.153c.013.05.02.102.02.159v8.341c0 1.12.253 1.954.762 2.5.508.534 1.206.8 2.092.8.887 0 1.578-.266 2.073-.8.509-.546.763-1.102.763-2.223v-.6c0-.15.046-.273.137-.369a.465.465 0 0 1 .352-.143h1.76c.144 0 .255.047.333.143a.513.513 0 0 1 .137.369v.6c0 1.312-.229 2.114-.685 2.962a4.244 4.244 0 0 1-1.916 1.865c-.822.396-1.806.594-2.954.594-1.134 0-2.118-.198-2.953-.594a4.352 4.352 0 0 1-1.936-1.865c-.456-.848-.684-1.927-.684-3.239V15.64L18.956 26.72a.818.818 0 0 1-.257.495.723.723 0 0 1-.516.186h-1.882c-.212 0-.377-.055-.496-.165a.988.988 0 0 1-.257-.372l-1.989-5.867a.014.014 0 0 0-.026 0l-1.989 5.867c-.118.358-.363.537-.733.537H8.93c-.225 0-.403-.062-.536-.186a.867.867 0 0 1-.237-.495l-1.604-9.8c-.03-.183.188-.32.356-.24.343.165.728.258 1.135.258.582 0 1.12-.19 1.554-.51z" fill="#FAFBFC"/><path d="M9.833 14.29a1.79 1.79 0 1 1-3.581-.002 1.79 1.79 0 0 1 3.581.002z" fill="#1874FF"/><path d="M59.403 30c-1.405 0-2.624-.235-3.657-.705a5.293 5.293 0 0 1-2.398-2.212c-.565-1.004-.848-2.284-.848-3.84v-9.892c0-.179.056-.324.17-.438a.56.56 0 0 1 .411-.17h2.204c.178 0 .315.057.412.17.113.114.17.26.17.438v9.892c0 1.329.315 2.317.945 2.965.63.632 1.493.948 2.591.948s1.954-.316 2.568-.948c.63-.648.944-1.636.944-2.965v-9.892c0-.179.057-.324.17-.438a.589.589 0 0 1 .436-.17h2.18c.177 0 .315.057.412.17.113.114.17.26.17.438v9.892c0 1.556-.284 2.836-.849 3.84a5.16 5.16 0 0 1-2.373 2.212c-1.018.47-2.237.705-3.658.705zM70.494 29.757a.56.56 0 0 1-.412-.17.563.563 0 0 1-.17-.413V13.35c0-.179.057-.324.17-.438a.56.56 0 0 1 .412-.17h6.492c1.259 0 2.357.203 3.294.608.936.389 1.663.988 2.18 1.798.516.794.775 1.79.775 2.99 0 1.215-.259 2.22-.775 3.014-.517.778-1.244 1.36-2.18 1.75-.937.389-2.035.583-3.294.583h-3.61v5.688c0 .162-.056.3-.17.413a.512.512 0 0 1-.41.17h-2.302zm2.834-8.969h3.536c.937 0 1.655-.219 2.156-.656.5-.454.75-1.118.75-1.993 0-.81-.233-1.458-.701-1.945-.469-.502-1.204-.753-2.205-.753h-3.536v5.347zM92.468 30c-1.486 0-2.754-.26-3.803-.778a5.78 5.78 0 0 1-2.422-2.236c-.566-.988-.872-2.163-.92-3.524a100.873 100.873 0 0 1 0-4.52c.047-1.346.354-2.496.92-3.452.58-.956 1.396-1.694 2.446-2.212 1.066-.519 2.325-.778 3.779-.778 1.178 0 2.212.162 3.1.486.888.308 1.623.713 2.204 1.215.597.486 1.041 1.013 1.332 1.58.307.567.469 1.094.485 1.58a.424.424 0 0 1-.121.365.523.523 0 0 1-.388.146h-2.495c-.161 0-.282-.033-.363-.098a.858.858 0 0 1-.218-.291 3.44 3.44 0 0 0-.606-.997c-.274-.34-.646-.624-1.114-.85-.468-.227-1.074-.34-1.817-.34-1.098 0-1.978.29-2.64.874-.646.583-.993 1.548-1.041 2.892a62.901 62.901 0 0 0 0 4.278c.048 1.378.403 2.366 1.066 2.966.678.6 1.566.899 2.664.899.727 0 1.372-.13 1.938-.389a2.91 2.91 0 0 0 1.356-1.215c.34-.551.509-1.256.509-2.115v-.753h-2.955a.56.56 0 0 1-.412-.17.594.594 0 0 1-.17-.438v-1.288c0-.178.057-.324.17-.438a.56.56 0 0 1 .412-.17h5.789c.177 0 .314.057.411.17.113.114.17.26.17.438v2.552c0 1.361-.299 2.536-.896 3.524-.582.989-1.421 1.75-2.52 2.285-1.081.535-2.365.802-3.85.802zM103.42 29.757a.559.559 0 0 1-.411-.17.564.564 0 0 1-.17-.413V13.35c0-.179.057-.324.17-.438a.559.559 0 0 1 .411-.17h6.274c1.954 0 3.496.454 4.626 1.361 1.13.908 1.696 2.228 1.696 3.962 0 1.199-.299 2.196-.897 2.99-.581.793-1.364 1.369-2.349 1.725l3.536 6.198a.6.6 0 0 1 .073.268.462.462 0 0 1-.17.364.463.463 0 0 1-.339.146h-2.204c-.274 0-.484-.073-.63-.219a2.022 2.022 0 0 1-.339-.437l-3.124-5.76h-3.367v5.833c0 .162-.057.3-.17.413a.511.511 0 0 1-.411.17h-2.205zm2.786-9.163h3.415c.985 0 1.72-.219 2.204-.657.485-.453.727-1.085.727-1.895s-.242-1.443-.727-1.896c-.468-.47-1.203-.705-2.204-.705h-3.415v5.153zM118.095 29.757a.548.548 0 0 1-.363-.146.496.496 0 0 1-.146-.364c0-.065.017-.138.049-.22l5.837-15.676a.88.88 0 0 1 .267-.414c.145-.13.339-.194.581-.194h2.64c.242 0 .428.065.557.194.13.114.226.252.291.414l5.837 15.677c.017.08.025.154.025.219a.496.496 0 0 1-.146.364.464.464 0 0 1-.339.146h-2.107c-.226 0-.396-.049-.509-.146a.994.994 0 0 1-.194-.316l-1.138-2.965h-7.194l-1.138 2.965a.854.854 0 0 1-.218.316c-.097.097-.259.146-.485.146h-2.107zm4.796-6.222h5.498l-2.761-7.51-2.737 7.51zM136.512 29.757a.559.559 0 0 1-.411-.17.56.56 0 0 1-.17-.413V13.35a.59.59 0 0 1 .17-.438.559.559 0 0 1 .411-.17h5.91c1.631 0 2.972.251 4.021.753 1.066.503 1.865 1.248 2.398 2.237.549.988.832 2.195.848 3.621.032.713.048 1.345.048 1.896 0 .55-.016 1.175-.048 1.872-.032 1.506-.307 2.754-.824 3.743-.516.972-1.3 1.701-2.349 2.187-1.034.47-2.358.705-3.973.705h-6.031zm2.786-2.795h3.124c.905 0 1.639-.13 2.205-.39.565-.258.976-.671 1.235-1.239.274-.583.42-1.345.436-2.284.016-.486.024-.908.024-1.264.016-.373.016-.738 0-1.094 0-.373-.008-.794-.024-1.264-.032-1.329-.363-2.309-.993-2.94-.63-.633-1.631-.949-3.004-.949h-3.003v11.424zM153.543 29.757a.56.56 0 0 1-.412-.17.563.563 0 0 1-.169-.413V13.35c0-.179.056-.324.169-.438a.56.56 0 0 1 .412-.17h10.658a.59.59 0 0 1 .436.17c.113.114.169.26.169.438v1.604c0 .162-.056.3-.169.413a.59.59 0 0 1-.436.17h-7.969v4.302h7.436a.59.59 0 0 1 .436.17c.113.098.169.235.169.414v1.507a.593.593 0 0 1-.169.437.646.646 0 0 1-.436.146h-7.436v4.448h8.162c.178 0 .323.056.436.17.113.113.17.26.17.437v1.605c0 .162-.057.3-.17.413a.589.589 0 0 1-.436.17h-10.851z" fill="#2F353D"/></svg>