<svg width="24" height="24" fill="none" xmlns="http://www.w3.org/2000/svg"><path fill-rule="evenodd" clip-rule="evenodd" d="M19.94 4.052a10.391 10.391 0 0 0-3.39-2.264A10.432 10.432 0 0 0 12.544 1C6.781 1 2.09 5.668 2.087 11.406c0 1.834.481 3.624 1.396 5.203L2 22l5.543-1.448a10.501 10.501 0 0 0 4.997 1.267h.004c5.762 0 10.454-4.668 10.456-10.406a10.307 10.307 0 0 0-3.06-7.36zm-7.396 16.011h-.003a8.705 8.705 0 0 1-4.424-1.207l-.317-.188-3.289.86.877-3.192-.206-.327a8.604 8.604 0 0 1-1.329-4.603c.002-4.769 3.9-8.649 8.695-8.649a8.67 8.67 0 0 1 6.144 2.537 8.565 8.565 0 0 1 2.543 6.12c-.003 4.768-3.901 8.649-8.69 8.649zm4.767-6.479c-.262-.13-1.545-.759-1.785-.846-.239-.087-.412-.13-.587.13s-.676.845-.828 1.019c-.153.174-.305.194-.566.065-.261-.13-1.103-.405-2.101-1.29-.777-.69-1.301-1.541-1.454-1.802-.153-.26-.016-.4.115-.53.118-.117.261-.305.392-.456.13-.152.173-.26.26-.434.088-.174.045-.326-.022-.455-.065-.131-.588-1.411-.806-1.932-.21-.504-.426-.437-.587-.444-.166-.006-.333-.01-.5-.009a.966.966 0 0 0-.697.325c-.24.26-.914.889-.914 2.169s.936 2.516 1.067 2.69c.13.174 1.842 2.8 4.463 3.926.624.268 1.111.428 1.49.549.625.198 1.195.169 1.645.103.502-.074 1.546-.629 1.764-1.236.218-.607.218-1.128.152-1.237-.065-.109-.24-.175-.5-.305z" fill="#fff"/></svg>